<?xml version="1.0" encoding="UTF-8"?>
<svg id="Layer_1" data-name="Layer 1" xmlns="http://www.w3.org/2000/svg" viewBox="0 0 471.2 190.01">
  <g>
    <g>
      <path d="M61.9,36.18c0-.76-.06-1.5-.17-2.22h0c-.01-.1-.02-.18-.04-.25-.46-2.89-1.73-5.52-3.56-7.64-.07-.08-.13-.15-.2-.23-.12-.14-.25-.27-.37-.4-.06-.06-.11-.11-.17-.17-.24-.24-.49-.46-.74-.69-.07-.07-.14-.13-.23-.19-2.28-1.95-5.13-3.24-8.27-3.59-.08-.02-.18-.02-.27-.04-.49-.05-.97-.07-1.47-.07-1.52,0-2.99.23-4.38.64-.12.02-.23.06-.34.11-.71.23-1.41.5-2.08.84-.1.04-.2.08-.3.14-.5.26-.99.55-1.45.87-.1.05-.18.11-.26.18-2.1,1.45-3.82,3.42-4.98,5.71-.05.08-.1.18-.14.27-.45.94-.81,1.92-1.07,2.96-.02.09-.05.19-.07.29-.26,1.12-.39,2.28-.39,3.47,0,.36.01.7.05,1.06h0c0,.12,0,.23.02.33.05.64.14,1.28.29,1.9,0,.04.01.05.01.07h0s.01.07.02.1c.01.05.02.09.04.14.52,2.21,1.53,4.24,2.9,5.97.05.07.11.13.15.19.14.18.3.33.45.5h0s.01.01.01.01c2.84,3.17,6.94,5.2,11.52,5.2.53,0,1.06-.05,1.58-.1h.01c2.01-.21,3.91-.78,5.61-1.67.07-.04.13-.07.2-.11,3.25-1.78,5.8-4.69,7.1-8.21.01-.01.01-.02.02-.05.23-.61.42-1.25.56-1.9.02-.11.05-.21.07-.32.14-.67.24-1.34.27-2.04h.01s-.01-.02-.01-.02c.01-.15.01-.32.02-.49.01-.19.02-.38.02-.57ZM61.24,39.44c-.01.1-.04.18-.06.27-.02.11-.05.2-.07.3-.11.44-.24.86-.39,1.27-.02.07-.05.13-.07.19-.01.04-.02.06-.04.08-.05.15-.11.31-.17.45-.05.09-.08.19-.12.27-.18.4-.37.78-.57,1.16-.05.08-.1.17-.14.25-.31.55-.65,1.06-1.02,1.56-.07.08-.13.17-.2.25-.36.46-.75.9-1.15,1.32-.06.07-.13.14-.2.2-.71.7-1.51,1.34-2.35,1.89-.1.07-.19.13-.3.19-.19.12-.38.24-.57.34-.12.06-.24.13-.36.19-.11.06-.23.12-.34.18-.1.05-.19.09-.3.13-.29.14-.58.27-.89.38-.1.05-.19.08-.29.11-.08.04-.15.07-.24.1h-.01c-.11.04-.21.08-.33.12-.3.1-.62.19-.93.26-.11.02-.2.06-.31.07-.12.04-.24.06-.37.08-.09.02-.19.04-.29.05h-.01c-.34.07-.69.13-1.06.17-.1.01-.2.02-.31.02-.45.05-.91.07-1.38.07-.14,0-.27,0-.42-.01-.13,0-.26,0-.39-.01h-.01c-.11,0-.21-.01-.33-.02h-.01c-.11,0-.2-.01-.3-.02-.17-.01-.33-.04-.5-.06-.12-.01-.24-.02-.36-.05-.34-.05-.69-.12-1.02-.19-.09-.02-.2-.05-.3-.07-.45-.11-.89-.25-1.33-.4-.01,0-.02,0-.04-.01-.2-.06-.39-.13-.59-.23h-.05s-.01-.02-.04-.04c-.05-.01-.11-.04-.15-.06-.1-.04-.19-.07-.27-.12-.62-.26-1.21-.57-1.77-.91-.08-.06-.17-.11-.25-.17-.14-.08-.27-.17-.4-.26-.08-.06-.17-.12-.25-.18-.18-.12-.36-.26-.52-.39-.08-.06-.17-.12-.24-.18s-.13-.12-.19-.17c-.08-.07-.17-.13-.24-.21-.13-.11-.26-.23-.39-.34-.07-.07-.15-.14-.23-.23-.14-.12-.25-.23-.38-.37h0c-.1-.11-.18-.19-.27-.27v-.02h-.01v-.02c-.11-.11-.2-.21-.3-.33-.1-.11-.19-.23-.29-.34-.1-.11-.18-.23-.27-.34-.64-.86-1.2-1.77-1.65-2.76-.06-.1-.1-.19-.13-.3-.29-.62-.52-1.26-.7-1.92-.04-.1-.06-.19-.08-.3-.01-.05-.02-.1-.05-.15-.02-.1-.05-.19-.06-.29h0c-.04-.12-.06-.24-.08-.34-.02-.11-.04-.2-.05-.3-.05-.23-.08-.45-.11-.68-.02-.11-.04-.2-.04-.3-.02-.08-.04-.15-.04-.23-.01-.1-.02-.19-.02-.29-.01-.02-.01-.05,0-.07-.01-.07-.02-.13-.01-.2-.01-.05-.02-.09-.01-.13-.01-.06-.01-.12-.01-.18-.01-.17-.02-.34-.01-.51-.01-.07-.01-.13-.01-.2v-.11c0-.21.01-.4.02-.62h0c0-.11,0-.21.02-.31,0-.27.04-.53.07-.8,0-.11.01-.2.04-.3.05-.42.13-.81.23-1.21h0c.01-.11.04-.2.06-.3.12-.49.27-.97.44-1.45.04-.1.07-.19.12-.3.13-.38.3-.77.48-1.14.01-.04.04-.06.05-.1.02-.06.06-.12.08-.17.02-.06.06-.12.08-.17.04-.07.08-.14.12-.21.05-.1.1-.18.14-.26.36-.63.75-1.22,1.19-1.79.06-.08.13-.18.2-.26.09-.12.2-.24.3-.36.09-.12.19-.23.3-.33.08-.11.19-.21.3-.31.06-.08.13-.15.2-.23.17-.18.34-.34.52-.5.07-.07.15-.14.23-.2.32-.3.67-.57,1.02-.82.08-.07.17-.13.25-.18.08-.07.17-.13.25-.18.31-.21.63-.42.96-.61.08-.05.18-.11.27-.15.05-.02.1-.05.14-.08.1-.05.2-.1.3-.15.24-.12.49-.23.74-.33.11-.06.21-.11.33-.13.3-.14.61-.25.91-.36.11-.04.23-.07.34-.12.39-.12.8-.23,1.21-.31.1-.02.2-.05.3-.06.05-.01.08-.02.13-.02.1-.02.2-.05.31-.06.55-.1,1.09-.15,1.65-.18.11-.01.21-.02.31-.02.19-.01.37-.01.56-.01.43,0,.86.02,1.27.06h.01c.18.01.34.02.52.06.24.01.46.05.69.1.11.01.2.02.3.05,1.89.34,3.66,1.05,5.23,2.03.08.06.17.11.25.18,0-.01.01,0,.01,0,.26.15.51.33.75.51.08.06.17.12.24.19.18.13.34.27.51.42.08.06.17.13.24.2.04.02.06.05.09.08.07.06.14.12.21.19.13.12.26.25.38.38.1.08.19.18.27.27.12.12.24.24.33.37.08.07.14.14.2.23.77.89,1.44,1.86,1.98,2.92h0s.02.05.04.06c.63,1.25,1.1,2.59,1.37,4,.02.06.04.11.04.17.01.05.02.09.02.14.02.11.05.21.06.33.11.74.17,1.48.17,2.24,0,.15,0,.31-.01.46,0,.1,0,.18-.01.27,0,.11,0,.21-.02.32.01.04.01.06,0,.1h0c0,.12-.01.21-.02.32h0c-.01.11-.02.2-.04.31-.04.38-.09.76-.18,1.14-.01.11-.04.21-.07.33Z" style="fill: #9b8579;"/>
      <path d="M34.77,43.3l-.18,2.36-.02.3h-.13c-.05-.07-.11-.13-.15-.2l.04-.44.14-1.95-.49-.81-.19-.3-.38-.63-.27-1.02-.33-.26s-.01-.01-.02-.01h-1.14v-.3h1.25l.04.04s.01.01.04.01l.44.34v.05s.3,1.06.3,1.06l.45.72.18.3.45.74Z" style="fill: #9b8579;"/>
      <path d="M35.19,42.76l-.02-.04c-.04-.06-.07-.11-.12-.17-.06-.1-.13-.2-.19-.3-.51-.78-.99-1.56-1.05-1.77h0s.01-.1.01-.1c0-.04.01-.08-.08-.23-.11-.13-.3-.34-.68-.69-.08-.07-.17-.15-.27-.25-.08-.07-.18-.15-.29-.24l-.04-.04h-1.08v.3h.97s.04.04.06.05c.1.08.19.17.29.25.25.23.49.45.64.62.08.08.14.15.17.2v.04s-.01.05,0,.08c.06.3.5,1.02.99,1.77.06.1.13.2.19.3.07.11.14.2.2.3-.01.33-.05,2.2-.01,3.15,0,.2,0,.34.01.44h0s.01.01.01.01l.27-.04v-.04s.01-.02.01-.02h-.01v-.02c-.06-.71.01-3.49.01-3.53v-.05Z" style="fill: #9b8579;"/>
      <path d="M53.36,45.89h-.01s-.07-.05-.11-.07c-.05-.02-.11-.07-.15-.09-.05-.04-.1-.07-.12-.1-.01-.06-.04-.13-.08-.21-.11-.19-.29-.4-.43-.56l-.46-.37-.29-.24c-.01.12-.01.25-.01.37l.29.23.27.23c.21.24.42.51.42.58,0,.06.02.12.08.17.05.06.13.12.24.19.04.02.06.04.1.06.11.08.33.21.42.32l-.14-.5ZM53.36,45.89h-.01s-.07-.05-.11-.07c-.05-.02-.11-.07-.15-.09-.05-.04-.1-.07-.12-.1-.01-.06-.04-.13-.08-.21-.11-.19-.29-.4-.43-.56l-.46-.37-.29-.24c-.01.12-.01.25-.01.37l.29.23.27.23c.21.24.42.51.42.58,0,.06.02.12.08.17.05.06.13.12.24.19.04.02.06.04.1.06.11.08.33.21.42.32l-.14-.5ZM53.79,46.3v-.04c-.1-.13-.25-.25-.43-.38h-.01s-.07-.05-.11-.07c-.05-.02-.11-.07-.15-.09-.05-.04-.1-.07-.12-.1-.01-.06-.04-.13-.08-.21-.11-.19-.29-.4-.43-.56l-.46-.37-.29-.24-1.15-.91-.13-.25-.11-.2-.13-.26h-.1s-.39.01-.83.02h-.02c-.53,0-1.16,0-1.33-.01-.23-.13-.87-1.84-1.1-2.49-.11-.29-.19-.52-.24-.63-.21-.49-1.35-1.16-1.66-1.22-.11-.1-.38-.67-.58-1.16-.2-.45-.71-1.71-.68-2.15.06-.58-.27-2.08-.29-2.15v-.04s-1.94-1.83-1.94-1.83l-.21-.2-.11-.11-1.26-.34-.29-.08-1.46-.4c-.24-.08-.48-.19-.65-.29-.12-.07-.21-.12-.26-.17l-.04-.04c-.09-.21-.55-.25-1.34-.12-.01-.18-.08-.49-.32-.87-.08-.14-.19-.31-.33-.48l-.18.15-.05.05c.11.13.2.25.26.36l.02.02s.02.04.04.05c.31.53.26.86.26.87l-.05.21.21-.05c.56-.1,1.13-.12,1.21-.07.02.06.08.11.15.17.07.06.15.11.25.15.26.14.57.26.71.32l1.48.4.29.07,1.15.31.1.1.2.19,1.86,1.76c.05.26.31,1.53.26,2.02-.06.59.62,2.13.7,2.29.55,1.34.72,1.34.81,1.34.18.02,1.27.65,1.44,1.05.05.11.13.33.24.62.5,1.35.8,2.07,1.02,2.41l-2.05-2.55c-.19-.26-1.15-1.6-1.26-1.71-.12-.17-1.62-3.06-2.6-4.98l-.02-.06-1.86-.56-.32-.11-1.01-.3h-.02s-.23-.18-.23-.18l-1.64-1.21-.24-.18-1.5-1.1-1.59-.96-.13-.08-.15.26.14.08,1.57.94,1.51,1.12.24.17,1.57,1.18.24.17.06.05.96.3.33.1,1.88.58c.94,1.84,2.49,4.87,2.61,4.99.08.08.8,1.08,1.24,1.69l3.35,4.2,1.5,1.13h.01s.02.02.02.02l.3.23,1.27.95.02.02.24.38.21.34.21.33h0s1.07,1.73,1.07,1.73l.15.26.2.32v-3.77s-.01-.1-.04-.14ZM52.5,47.53l-.2-.34-.33-.52h0s-.31-.25-.31-.25l-1.27-.95s-.02-.04-.04-.05h-.01s-.3-.21-.3-.21l-1.21-.91-1.19-1.5c.08.1.15.13.21.14.31.02,1.76,0,2.15,0l.12.23.18.34.08.06,1.31,1.06.29.23.27.23c.21.24.42.51.42.58,0,.06.02.12.08.17.05.06.13.12.24.19.04.02.06.04.1.06.11.08.33.21.42.32l.02.07v2.71l-1.02-1.64ZM53.36,45.89h-.01s-.07-.05-.11-.07c-.05-.02-.11-.07-.15-.09-.05-.04-.1-.07-.12-.1-.01-.06-.04-.13-.08-.21-.11-.19-.29-.4-.43-.56l-.46-.37-.29-.24c-.01.12-.01.25-.01.37l.29.23.27.23c.21.24.42.51.42.58,0,.06.02.12.08.17.05.06.13.12.24.19.04.02.06.04.1.06.11.08.33.21.42.32l-.14-.5Z" style="fill: #9b8579;"/>
      <path d="M58.45,45.59l-1.12-2.09c-1.87-.61-2.11-.81-2.15-.93-.15-.14-1.04-.61-1.85-.99l-2.39-1.25-2.44-1.41-.8-1.08c-.26-.42-.93-1.5-.97-1.57-.02-.02-1.62-2.54-1.62-3.35,0-.51.31-1.16.54-1.64.07-.14.15-.31.18-.4-.18-.05-.66-.09-1.03-.11-1.12-.09-1.52-.14-1.56-.38-.04-.18-.6-1.22-.97-1.88-.38-.03-1.08-.13-1.14-.5-.22-.1-1.36-.03-2.34.1h-.06s-1.24-.88-1.24-.88c-.32-.22-1.97-1.35-2.15-1.7l.27-.13c.11.21,1.27,1.06,2.06,1.59l1.15.82c.71-.1,2.24-.27,2.53-.01.05.04.08.1.08.17,0,.08.4.22.94.25h.08s.04.08.04.08c.16.28.93,1.64,1.03,2,.15.08.87.14,1.3.17,1.03.08,1.32.11,1.32.35,0,.11-.07.27-.23.6-.21.45-.51,1.07-.51,1.51,0,.65,1.41,2.95,1.57,3.19.06.09.93,1.51.97,1.57l.77,1.04,2.36,1.35,2.38,1.25c1.68.79,1.96,1.04,2,1.15.17.13,1.14.49,2.01.77l.06.02,1.18,2.2-.26.14Z" style="fill: #9b8579;"/>
      <path d="M51.7,50.57l-.25-.78-1.88-1.05-1.6-1.49-1.08-2.27-2.25-3.14-2.35-1.55-.02-.05-1.01-3.26c-.21-.18-1.31-1.08-1.62-1.38-.27-.25-1.62-.94-2.12-1.19l-1.88-1.03-1.11-.36-2.56-2.07.19-.23,2.53,2.05,1.06.33,1.9,1.03c.18.09,1.84.91,2.19,1.24.33.32,1.63,1.38,1.64,1.4l.03.03,1.02,3.29,2.33,1.54,2.28,3.18,1.08,2.27,1.51,1.4,1.96,1.09.29.89-.28.09Z" style="fill: #9b8579;"/>
      <path d="M36.02,47.36l-.27-.11.56-1.33c.01-.25.1-2.28,0-2.82-.1-.53-.79-1.19-1.32-1.4-.58-.24-.54-1.19-.52-1.46-.18-.25-1.07-1.46-1.36-1.76-.2-.2-1.21-.23-1.87-.19l-.02-.3c.29-.02,1.74-.1,2.1.27.34.34,1.37,1.78,1.42,1.84l.03.05v.06c-.04.29-.04,1.06.33,1.21.61.25,1.37.98,1.5,1.62.12.6,0,2.82,0,2.91v.05s-.58,1.36-.58,1.36Z" style="fill: #9b8579;"/>
      <polygon points="35.46 46.74 35.16 46.72 35.33 43.94 35.25 42.56 32.42 42.56 32.42 42.26 35.54 42.26 35.63 43.94 35.46 46.74" style="fill: #9b8579;"/>
      <path d="M37,48.28l-.22-.2.77-.83-.23-1.73v-.02c.13-1.05.26-2.25.23-2.4-.05-.09-.75-1.12-1.18-1.75-.01-.01-.31-.35-1.26-2.47-.91-2.03-3.97-1.68-4-1.67l-.04-.29c.14-.02,3.3-.39,4.31,1.85.92,2.06,1.21,2.39,1.22,2.41.28.41,1.17,1.7,1.23,1.84.05.11-.02.96-.22,2.51l.24,1.83-.86.93Z" style="fill: #9b8579;"/>
      <path d="M36.63,47.92l-.27-.13.67-1.37-.23-1.4.23-.96-.67-2.09-1.03-1.24-.43-1.26-1.13-1.22c-.6-.17-2.12-.56-2.58-.48l-.05-.29c.64-.12,2.54.43,2.76.5h.04s1.24,1.37,1.24,1.37l.43,1.26,1.03,1.24.7,2.2-.23.98.23,1.43-.71,1.46Z" style="fill: #9b8579;"/>
      <path d="M37.84,48.84l-.27-.11.61-1.46v-3.44l-.22-1.97-1.3-1.12-.73-1.84-1.39-1.73c-.4-.09-2.89-.66-3.48-.84l.09-.28c.61.19,3.47.84,3.5.85h.05s1.49,1.88,1.49,1.88l.72,1.82,1.32,1.12.23,2.11v3.51s-.63,1.51-.63,1.51Z" style="fill: #9b8579;"/>
      <path d="M38.44,49.29l-.23-.19,1.09-1.29-.39-3.22v-2.7s-.71-1.1-.71-1.1l-1.15-1.02c-.58-.94-1.55-2.48-1.68-2.61-.13-.11-.94-.62-1.26-.83l-3.06-.93.09-.28,3.11.95c.12.07,1.14.72,1.32.86.18.15,1.35,2.05,1.73,2.66l1.15,1.02.76,1.2v2.77l.4,3.33-1.18,1.38Z" style="fill: #9b8579;"/>
      <path d="M40.57,50.31l-.29-.05.18-1.1c.1-.33.33-1.22.29-1.57-.04-.31-.28-.46-.56-.64-.06-.04-.12-.07-.17-.11-.27-.18-.09-.82.4-2.22.15-.45.35-1,.34-1.12-.05-.3-1.33-4.62-1.42-4.87-.05-.06-.57-.43-.98-.72-.59-.41-1.26-.88-1.54-1.16-.31-.31-.67-.49-.96-.64-.18-.09-.33-.17-.45-.26-.26-.21-3.06-1.66-4.14-1.51l-.04-.29c1.2-.18,4.07,1.34,4.36,1.57.09.07.23.14.4.23.31.16.69.35,1.04.69.26.26.92.72,1.5,1.13.91.63,1.06.76,1.1.87.01.04,1.37,4.54,1.43,4.91.03.16-.08.49-.35,1.26-.21.6-.59,1.71-.5,1.89.04.02.1.06.15.09.3.19.64.4.7.85.06.48-.28,1.62-.29,1.67l-.17,1.08Z" style="fill: #9b8579;"/>
      <path d="M42.73,47.34c-.06.08-.15.13-.27.11-.38-.02-.64.64-.69.76l-.05,2.33h-.26s-.04-.01-.04-.01h0s.06-2.39.06-2.39c.01-.04.34-1.03,1.01-.97.1-.12-.08-.75-.53-1.88-.06-.15-.12-.29-.14-.38-.18-.5-.04-1.91-.01-2.17-.36-1.4-.94-3.65-1.03-3.81-.01-.01-.07-.09-.17-.19-.21-.27-.72-.89-.88-.97-.21-.13-.91-1.05-1.19-1.41h-1.16l-.72-.48-.25-.17-1.44-.95s-.04-.02-.06-.04c-.08-.06-.18-.11-.29-.18-.15-.09-.33-.2-.52-.32-.09-.05-.19-.11-.29-.15-.78-.48-1.64-.96-2.17-1.21h0c-.12-.06-.21-.11-.29-.13.02-.1.05-.19.07-.29.08.02.17.06.27.12.61.29,1.6.86,2.36,1.31.1.05.19.11.27.15.24.15.44.27.58.36.12.07.19.12.2.13l.07.06h.01l1.44.94.25.17.57.38h1.22l.05.06c.46.63,1.02,1.32,1.15,1.39.18.11.57.57.96,1.05.07.1.13.17.15.19.09.1.46,1.43,1.1,3.96v.05c-.05.45-.14,1.69-.01,2.08.04.08.08.21.14.37.49,1.2.7,1.89.5,2.16Z" style="fill: #9b8579;"/>
      <path d="M43.05,51.14l-.29-.07.2-.81.17-2.41.22-1.88c-.11-.27-.81-1.99-1.16-2.44l.23-.18c.41.52,1.18,2.46,1.22,2.55v.04s-.22,1.95-.22,1.95l-.17,2.43-.2.84Z" style="fill: #9b8579;"/>
      <path d="M44.22,51.43l-.43-.9.7-1.77c0-.24.05-2.02,0-2.8-.05-.78-.47-1.28-.48-1.29l-1.84-3.44.26-.14,1.82,3.41h0s.47.56.53,1.44c.06.84,0,2.77,0,2.85v.05s-.67,1.68-.67,1.68l.38.79-.27.13Z" style="fill: #9b8579;"/>
      <path d="M45.77,51.61l-.22-.2c.53-.59,1.38-1.54,1.55-1.75-.02-.09-.08-.34-.15-.62-.44-1.83-.69-2.92-.67-3.11-.08-.35-2.5-3.41-2.84-3.58l.13-.27c.37.18,3.05,3.46,3.01,3.88-.01.21.46,2.17.66,3.01.16.68.16.69.16.72,0,.07,0,.12-1.63,1.92Z" style="fill: #9b8579;"/>
      <path d="M45.23,51.41l-.28-.09c.39-1.25.56-1.6.64-1.71.04-.35-.29-3.08-.35-3.3l.28-.09s.51,3.2.29,3.57h0c-.08.11-.36.91-.58,1.62Z" style="fill: #9b8579;"/>
      <path d="M48.02,51.56l-.28-.1c.06-.16.21-.65.16-.91-.06-.35-.79-3.62-.79-3.65l.29-.06c.03.14.74,3.31.8,3.67.06.39-.17,1.03-.18,1.06Z" style="fill: #9b8579;"/>
      <polygon points="49.21 51.27 48.58 48.82 48.87 48.75 49.5 51.19 49.21 51.27" style="fill: #9b8579;"/>
      <polygon points="41.04 50.31 40.74 50.27 41.36 45.5 41.05 41.2 40.1 38.96 37.71 38.64 32.45 39.6 31.59 39.94 31.48 39.66 32.37 39.32 37.7 38.34 37.73 38.34 40.3 38.69 41.35 41.15 41.66 45.51 41.04 50.31" style="fill: #9b8579;"/>
      <path d="M59.74,43.77l-3.73-2.1-1.9-.36-.03-.03-2.35-2.33c-.72-.49-4.45-3.05-4.63-3.64-.04-.14-.15-.43-.27-.79-.68-1.91-.99-2.87-.85-3.13.11-.21.22-1.04.28-1.63l-2.51-.39-.96-1.28-1.95-1.16h-2.36s-1.41-.6-1.41-.6l-.98-1.5.25-.16.93,1.42,1.3.54h2.35l2.09,1.25.9,1.2,2.67.41v.14c-.03.15-.16,1.52-.34,1.87-.08.26.58,2.11.87,2.9.13.36.24.66.28.8.1.32,2.38,2.04,4.53,3.5l2.33,2.32,1.88.37,3.75,2.12-.15.26Z" style="fill: #9b8579;"/>
      <path d="M60.44,42.35l-1.94-1.06-3.15-.97-.03-.03c-1.13-1.19-2.44-2.46-2.65-2.53-.33-.02-2.16-1.46-2.23-1.87-.05-.2-1.03-.84-1.45-1.12-.22-.15-.4-.26-.48-.33-.2-.16-.44-.74-.74-1.48-.11-.27-.21-.52-.26-.61-.1-.17-.07-.5,0-1.03.04-.31.09-.84.03-.93-.14-.14-.31-.64-.56-1.44-.13-.4-.26-.81-.32-.91-.14-.12-1.31-.18-2.31-.16h-.07s-.05-.05-.05-.05c-.53-.63-1.2-1.33-1.36-1.37h0c-.25,0-2.93-.71-3.47-.86l-.06-.03-2-1.7.19-.23,1.98,1.68c1.22.33,3.18.84,3.37.84.26,0,.96.76,1.52,1.42,1.06-.02,2.32.01,2.5.3.08.13.18.46.35.98.15.49.39,1.22.49,1.33.16.16.12.55.05,1.17-.03.3-.09.76-.03.85.06.11.16.35.28.65.18.46.49,1.23.65,1.36.07.06.25.18.46.31,1.04.68,1.54,1.05,1.58,1.32.07.29,1.7,1.58,1.97,1.62.28.01,1.67,1.41,2.8,2.59l3.1.96,1.97,1.07-.14.26Z" style="fill: #9b8579;"/>
      <polygon points="44.2 24.9 41.11 24.9 38.83 22.93 39.03 22.71 41.22 24.6 44.04 24.6 45.27 22.76 45.59 20.85 45.88 20.9 45.54 22.9 44.2 24.9" style="fill: #9b8579;"/>
      <polygon points="42.3 23.53 40.29 22.23 40.45 21.98 42.31 23.19 43.36 22.64 43.63 21.06 43.93 21.11 43.63 22.83 42.3 23.53" style="fill: #9b8579;"/>
      <path d="M56.05,46.88l-2.48-.3-.65-2.11-1.15-1.26-3.83-.86-.02-.09c-.33-1.41-.41-1.87-.41-2.04-.1-.23-1.21-2.01-1.9-3.09l-1.96-4.06-1.03-2.37-1.78-.99-3.47-.88-2.47-2.07v-.82h.3v.68l2.33,1.96,3.44.86,1.89,1.05,1.07,2.45,1.95,4.04c1.67,2.63,1.94,3.11,1.93,3.26,0,.15.19,1.04.38,1.87l3.74.84,1.27,1.41.6,1.96,2.29.28-.04.29Z" style="fill: #9b8579;"/>
      <path d="M57.1,47.11c-.11-.25-1.4-1.18-1.85-1.46-.34-.21-2.51-2.87-2.86-3.31l-3.15-1.31-2.35-2.84-1.65-3.56-1.59-3.24.27-.13,1.59,3.24,1.65,3.55,2.29,2.76,3.15,1.32c.96,1.19,2.57,3.13,2.81,3.27.15.09,1.78,1.19,1.96,1.59l-.27.12Z" style="fill: #9b8579;"/>
      <path d="M60.68,41.61c-.14-.13-2.24-1.53-3.53-2.38l-4.89-2.95c-3.41-3.55-3.38-3.7-3.37-3.79-.01-.18-.62-2.22-1-3.49l-1.86-2.19-1.66-.41.07-.29,1.75.43,1.97,2.34c.45,1.47.98,3.23,1.02,3.59.14.27,2.07,2.33,3.28,3.58l4.85,2.92c3.69,2.42,3.68,2.44,3.63,2.59l-.28-.1.14.05-.11.09Z" style="fill: #9b8579;"/>
      <path d="M52.14,27.63h-3.23l-.04-.06c-.66-.94-1.76-2.55-1.76-2.82s.65-2.19.78-2.57l.28.1c-.37,1.09-.76,2.32-.76,2.47.03.18.87,1.45,1.66,2.59h2.96c.09-.32.38-.78,1.02-.8.71-.02,2.35-.64,2.59-.73l.99-1.05.22.2-1.07,1.11c-.08.03-1.91.74-2.73.76-.66.02-.76.65-.76.67l-.02.13h-.13Z" style="fill: #9b8579;"/>
      <path d="M51.16,25.65l-2.25-1.81v-2.74h.3v2.6l1.98,1.59c.54-.31,2.28-1.33,2.44-1.38.1-.04.57-.41.96-.74l.19.23c-.2.17-.87.73-1.06.8-.14.05-1.59.89-2.47,1.41l-.09.05Z" style="fill: #9b8579;"/>
      <path d="M48.81,27.15l.03-.23c.03-.26.11-.99.08-1.21-.04-.23-.74-3.44-.96-4.49l-3.21,4.62h-1.89s-4.92-1.94-4.92-1.94l.11-.28,4.89,1.92h1.65l3.51-5.05.07.33c.04.19.99,4.56,1.04,4.84.04.22-.01.75-.05,1.07.83-.26,3.82-1.17,4.64-1.41.84-.25,1.23-.77,1.63-1.31l.1-.14.24.18-.1.14c-.42.56-.85,1.15-1.79,1.42-.95.28-4.82,1.47-4.86,1.48l-.22.07Z" style="fill: #9b8579;"/>
      <path d="M61.67,39.74c-.74-.52-.95-.72-1-.83-.14-.07-.69-.19-1.16-.27l-.06-.02c-.15-.1-.9-.61-1.01-.94-.04-.11-.04-.23-.05-.37-.01-.31-.02-.66-.38-1.01-.53-.5-1.67-.65-1.68-.65h-.04s-2.2-.91-2.2-.91c-.67-.59-2.25-1.97-2.35-2.14-.13-.23-.08-2.29.11-2.85.16-.48.33-.62.45-.66,1.09-.88,2.83-2.3,2.95-2.48.09-.17.53-.42,1.44-.93.22-.12.43-.24.61-.34l.52-.3-2.63,4.23c0,.14-.04.71.06,1.23.11.61.55,2.4.56,2.45h0s.09.16.28.18c.22.02.37.23.51.42.05.07.13.18.17.19h0c.19,0,1.84.53,2.82.85h.04s2.25,2.66,2.25,2.66l-.23.19-2.19-2.58c-.97-.32-2.54-.81-2.71-.82-.15,0-.26-.14-.39-.31-.09-.12-.21-.29-.3-.3-.36-.04-.52-.36-.52-.38-.03-.1-.46-1.88-.57-2.5-.12-.64-.06-1.32-.06-1.35l.02-.07,2.03-3.26s-.07.04-.1.06c-.5.28-1.25.69-1.33.82-.11.21-2.17,1.87-3.05,2.58l-.04.03h-.05s-.1.08-.24.47c-.18.53-.2,2.41-.13,2.62.09.13,1.43,1.32,2.26,2.04l2.12.86c.17.02,1.26.19,1.83.73.45.42.46.88.47,1.21,0,.12,0,.22.03.28.06.17.54.55.87.78,1.23.22,1.35.33,1.36.45.09.11.52.44.89.69l-.17.24Z" style="fill: #9b8579;"/>
      <path d="M61.27,40.03l-4.13-.78-.03-.05-2.19-3.33v-.04c-.09-1.22-.24-2.58-.35-2.74-.15-.17-.83-.97-1.02-1.29-.12-.2-.1-.4-.07-.76.02-.26.05-.61.05-1.14,0-1.33.79-1.73.82-1.75.64-.49,1.94-1.47,2.07-1.58l.19.22c-.17.15-2.03,1.55-2.11,1.61-.05.03-.68.36-.68,1.5,0,.54-.03.9-.05,1.16-.03.35-.04.46.03.58.15.26.77,1,.99,1.25.19.21.34,1.87.41,2.87l2.12,3.21,4.01.76-.05.29Z" style="fill: #9b8579;"/>
      <path d="M61.72,38.01c-2.36-.51-6.24-1.27-6.58-1.2-.05.02-.14.02-.24-.03-.4-.23-.74-1.59-.84-2.04-.98-.27-3.28-.87-3.91-.87-.03,0-.05,0-.07,0-.23.03-.4-.03-.52-.15-.23-.26-.15-.75,0-1.41.06-.26.14-.56.22-.88.16-.63.35-1.34.35-1.7s.14-.56.22-.68c.02-.02.04-.06.04-.07-.1-.16-.13-.2,2.6-1.93.74-.47,1.51-.96,1.62-1.07.3-.3,1.98-1.71,2.05-1.77l.19.23s-1.74,1.47-2.03,1.75c-.13.12-.72.5-1.67,1.11-.89.57-2.22,1.41-2.46,1.65.02.11-.05.21-.09.28-.07.1-.16.23-.16.51,0,.4-.18,1.1-.36,1.78-.08.31-.16.62-.22.87-.09.41-.21.98-.06,1.15.05.05.13.07.26.06.68-.09,3.83.8,4.18.9l.09.02.02.09c.22.99.56,1.9.73,1.94.44-.13,5.68.97,6.72,1.19l-.06.29Z" style="fill: #9b8579;"/>
      <path d="M61.7,34.03l-3.95-1.34c-.16.02-.78.08-1.07-.04-.12-.04-.42-.16.37-2.32-.1-.11-.33-.36-.65-.73-.51-.57.16-2.02.24-2.18l1.29-1.58.23.19-1.27,1.55c-.24.52-.55,1.51-.27,1.83.45.51.71.79.71.79l.06.07-.03.08c-.31.83-.59,1.82-.54,2.04.2.06.67.03.93,0h.03s.03,0,.03,0l3.98,1.35-.1.28Z" style="fill: #9b8579;"/>
      <path d="M49.21,30.21l-.36-2.17c-.28-.27-1.63-1.56-1.74-2.08-.11-.49-.8-1.54-.8-1.55l-.02-.04v-3h.3v2.91c.13.2.71,1.12.82,1.61.08.35,1.08,1.39,1.69,1.96l.04.03.38,2.27-.29.05Z" style="fill: #9b8579;"/>
      <path d="M50.1,51.13l-.29-.07s.36-1.61.23-2.25c-.08-.36-.01-1.17.05-1.95.04-.47.08-1.05.06-1.22l-.02-.02c-.28-.27.2-4.78.35-5.67q.12-.7.18-.81c.04-.09.13-.27.44-1.31.37-1.27.25-1.45.24-1.47-.07,0-.14.01-.19-.04l-.05-.04v-.08c0-.16.27-.5,1.73-2.13l.24-.27c.91-1.03,3.78-2.98,3.91-3.06,1.25-.65,2.61-1.4,2.73-1.56l.28.1c-.02.07-.07.29-2.85,1.72-.01.01-2.95,2.01-3.84,3l-.24.27c-.58.65-1.33,1.5-1.58,1.84.04.02.07.04.11.08.11.14.18.46-.19,1.73-.31,1.07-.41,1.26-.46,1.36-.04.07-.04.07-.15.73-.23,1.33-.51,4.91-.43,5.41h.01c.12.11.11.38.02,1.48-.05.69-.12,1.55-.05,1.87.15.7-.21,2.31-.23,2.38Z" style="fill: #9b8579;"/>
      <path d="M51.35,50.78l-.29-.06c.35-1.74.7-3.71.65-3.93-.07-.11-.07-.55-.03-2,.02-.71.05-1.45.02-1.7-.06-.5-.04-.66-.02-.72.03-.12.2-.86.78-2.28.64-1.58,2.09-3.94,3.14-5.49.69-1.01.95-1.1,1.11-1.04.06.02.1.06.13.11l3.88-2.24.15.26-4.3,2.48.02-.28s0-.01,0-.02c-.09.05-.3.24-.75.9-1.04,1.53-2.48,3.87-3.11,5.43-.61,1.5-.77,2.24-.77,2.25v.03s-.02.18.03.58c.03.28.01.99-.01,1.75-.02.73-.05,1.72,0,1.86.1.16-.11,1.55-.62,4.11Z" style="fill: #9b8579;"/>
      <path d="M61.42,33.37s-.05.06-.07.1c-.02.04-.05.07-.08.11-.06.07-.13.17-.19.25-.33.43-.71.91-1.01,1.32-.07.08-.13.17-.18.24-.25.32-.43.56-.45.62-.05.07-.38.31-.86.63-.08.05-.17.11-.26.17-.08.06-.18.12-.27.17-.12.08-.24.15-.37.24-.34.23-.72.45-1.09.67-.08.06-.17.11-.25.17-.11.06-.21.13-.32.19-.1.06-.19.12-.29.17-.12.07-.23.14-.33.2-.02.17-.09.59-.21,1.14-.02.11-.05.21-.08.33-.07.33-.17.7-.27,1.07-.04.09-.06.2-.1.3-.05.15-.11.3-.17.44-.02.09-.06.19-.11.27-.04.12-.1.24-.14.34-.14.32-.31.71-.49,1.15-.04.11-.07.21-.12.32h0c-.12.32-.24.64-.34.96-.06.15-.12.32-.17.48-.04.12-.07.23-.12.33-.02.09-.06.19-.1.29-.2.63-.38,1.19-.49,1.52-.06.2-.09.33-.11.37h0c0,.17.36,1.07.72,1.91.01.05.04.09.06.14l-.26.13s-.06-.1-.1-.14c-.26-.43-.7-.97-1-1.01-.05,0-.08-.01-.12-.02-.11-.02-.2-.07-.29-.13-.24-.17-.43-.42-.57-.61-.07-.08-.13-.17-.17-.19-.04-.02-.17-.14-.37-.32-.08-.07-.17-.15-.27-.24-.89-.78-2.41-2.14-2.49-2.22l-.04-.06c-.27-.7-.67-1.5-.81-1.56-.29-.06-1.22-1.54-1.96-2.8l-1.38-1.06v-.05c-.05-.11-1.03-2.62-1.18-3.14-.09-.34-1.78-1.77-2.83-2.6l-.5-.24-.27-.14-.96-.46-.27-.13-1.6-.8-.06-.02-.18-.14-2.79-2.34-.24-.19c.05-.09.1-.19.14-.27l.08.07.14.13.15.12,2.67,2.23.18.14.06.04,1.66.81.29.14.94.46.29.13.43.21c.5.38,2.8,2.23,2.96,2.77.13.46,1.02,2.76,1.14,3.08l1.37,1.08c.74,1.24,1.62,2.58,1.81,2.68.29.05.74,1.07.99,1.7.53.48,1.57,1.4,2.29,2.05.1.08.19.17.27.24.29.25.49.43.52.45.07.05.13.13.23.25.11.14.24.32.39.46.08.07.18.14.29.17.04.01.06.02.1.02.19.01.4.15.58.33-.2-.52-.37-1.01-.33-1.15.01-.04.04-.13.07-.26.04-.1.07-.23.12-.38.12-.36.27-.83.45-1.37.04-.13.08-.26.13-.4.06-.17.12-.33.18-.5.05-.15.11-.32.17-.48.08-.25.18-.51.27-.75.04-.11.07-.21.12-.31.14-.39.3-.75.43-1.03.05-.12.11-.24.14-.36.05-.08.08-.18.11-.27.05-.12.1-.24.13-.36.04-.09.07-.2.09-.3.14-.44.25-.87.34-1.26.02-.12.05-.24.07-.34.12-.58.18-.99.18-1v-.07s.07-.04.07-.04c.08-.05.15-.1.25-.15.1-.05.19-.11.3-.17.14-.08.29-.17.44-.26.08-.05.17-.1.25-.15.29-.17.57-.34.84-.51.13-.07.25-.15.37-.23.2-.13.39-.25.57-.37.08-.05.17-.11.25-.15.39-.25.68-.44.72-.51.04-.07.24-.36.51-.71.05-.07.12-.15.18-.24.3-.4.64-.86.9-1.19.07-.09.14-.18.2-.25.11-.13.18-.23.21-.27l.13.11.11.07Z" style="fill: #9b8579;"/>
      <path d="M54.39,49.19c-.03-.67-.04-1.81.19-2.03.08-.08.13-.54.18-.94.04-.38.09-.85.19-1.34.16-.81.74-2.04,1.72-3.63.49-.8,2.59-2.06,3.08-2.28.34-.15,1.33-1.55,1.87-2.39l.25.16c-.15.23-1.46,2.26-2,2.5-.54.24-2.53,1.47-2.95,2.16-.96,1.57-1.53,2.75-1.69,3.53-.09.47-.14.92-.19,1.31-.07.6-.11.97-.27,1.12-.1.13-.13,1.04-.1,1.81h-.3Z" style="fill: #9b8579;"/>
      <path d="M39.6,49.21c-.21-1.72-.43-3.82-.26-4.04.11-.15.25-1.36.25-2.56,0-.81-.22-2.15-.3-2.57-.48.03-2.16.15-2.53.24-.2.05-.37.02-.56-.02-.31-.05-.73-.13-1.55.07-1.38.34-1.86.01-1.92-.03l.18-.24s.42.28,1.66-.03c.89-.22,1.34-.14,1.68-.08.18.03.3.05.44.02.46-.12,2.63-.25,2.72-.26h.13s.02.12.02.12c.01.07.32,1.76.32,2.76,0,.72-.08,2.42-.31,2.73-.07.2.1,2.11.31,3.83l-.29.04Z" style="fill: #9b8579;"/>
      <path d="M39.7,24.28c0-.2,0-.4-.01-.62,0-.13-.01-.26-.01-.39h0c-.02-.24-.04-.46-.05-.67,0-.11-.01-.21-.01-.31-.01-.04-.01-.06-.01-.08l-.3.02c0,.07.01.13.01.2.01.11.01.21.01.32.01.07.02.14.01.21h0c.01.14.02.29.02.42.01.26.02.52.02.77.01.11.01.21.01.32.01.27,0,.52-.01.72,0,.15-.01.27-.04.36h0s0,.08-.01.11l-.13.18.02.02c-.06.1-.17.32-.42.75-.05.08-.11.18-.17.29-.1.17-.2.34-.32.56-.05.08-.09.17-.15.25-.15.26-.33.56-.53.89-.05.08-.1.15-.15.25-.05.08-.11.19-.17.29-.05.07-.1.15-.14.23-.05.08-.1.18-.14.26-.27.45-.52.84-.75,1.2-.06.08-.11.17-.15.25-.17.25-.31.48-.45.68-.06.08-.11.18-.17.25-.23.34-.43.62-.61.86-.07.08-.13.17-.19.25-.3.38-.51.61-.67.75-.11.1-.19.15-.25.2l-.15.12c-.15.12-.29.23-.42.32h-.01c-.1.1-.19.17-.27.21-.67.51-.9.62-.99.64l-.24-.07c-.19,0-.37.06-.4.07l.05.13.06.15c.07-.02.23-.06.32-.04h.01s.05,0,.06.01c.04.02.07.04.12.04.08,0,.21-.04.43-.17.2-.12.5-.32.91-.64.08-.06.18-.13.27-.21h.01c.08-.07.18-.14.27-.21l.15-.12s.06-.05.09-.08c.06-.05.14-.12.24-.2.17-.17.38-.4.69-.81.06-.07.12-.15.19-.25.15-.21.34-.48.55-.78.06-.07.11-.15.17-.24.14-.21.29-.44.45-.69.05-.07.09-.15.15-.24.23-.37.49-.77.76-1.22.05-.08.11-.17.15-.25.05-.08.1-.15.14-.24.07-.13.15-.25.21-.37.06-.08.11-.17.15-.25.18-.29.33-.55.46-.78.06-.1.11-.18.15-.26.18-.29.31-.52.43-.72.06-.11.12-.2.17-.29.2-.36.31-.57.36-.7.02-.01.04-.04.05-.05.04-.04.06-.11.08-.2.01-.08.02-.19.02-.31.04-.21.04-.48.04-.76,0-.11,0-.2-.01-.32Z" style="fill: #9b8579;"/>
      <path d="M43.46,21.3c-.01.2-.08.62-.21,1.4-.02.12-.04.24-.07.37-.07.42-.15.93-.27,1.53-.01.1-.04.19-.05.3-.04.18-.07.37-.11.57-.01.1-.04.2-.06.31,0,.02,0,.06-.01.1-.01.08-.04.17-.05.25-.01.09-.04.19-.05.29-.07.37-.14.74-.2,1.09-.01.11-.04.21-.05.31-.02.14-.05.26-.07.39-.02.11-.04.21-.06.31-.12.68-.21,1.21-.25,1.47-.01.07-.01.12-.01.14s0,.06-.05.15c-.05.11-.18.31-.48.68-.06.07-.13.14-.2.21-.32.38-.78.9-1.47,1.63-.07.07-.14.14-.21.23-.14.14-.29.29-.44.45-.07.07-.15.14-.23.23-.21.21-.44.45-.69.7l-.23.23c-.19.19-.39.39-.61.61-.14.14-.3.29-.46.43-.07.07-.15.14-.24.2-.08.08-.17.15-.26.23-.08.07-.17.14-.26.2-.23.19-.45.37-.69.53-.08.07-.17.13-.25.19-.08.07-.17.13-.25.19-.08.06-.15.12-.24.18-.11.07-.2.14-.3.21-.09.06-.18.12-.26.19-.1.06-.19.13-.27.19h-.01c-.11.08-.2.14-.3.21h-.01c-.06.05-.12.1-.18.13-.09.06-.17.12-.25.18-.01.01-.02.01-.04.02-.23.15-.44.3-.62.44h-.01c-.17.12-.3.21-.42.3-.14.11-.25.19-.3.25-.04.04-.07.06-.1.08-.01.01-.01.02-.02.01-.05.05-.08.08-.12.11-.05.04-.08.06-.12.07-.01-.05-.02-.1-.04-.14h.02s-.01-.05-.04-.08h-.01s-.04-.04-.06-.04c.01-.01.02-.02.05-.05.05-.02.12-.08.21-.18.01-.01.02-.02.04-.04h.01c.08-.07.21-.18.38-.3.23-.17.51-.37.86-.62.04-.02.07-.05.11-.07.06-.05.13-.08.19-.13.02-.01.04-.02.06-.05.11-.07.21-.14.32-.23.12-.07.24-.15.36-.24.1-.07.19-.14.29-.2.12-.09.24-.18.37-.27.08-.06.17-.12.26-.18.06-.05.12-.09.18-.13.08-.07.17-.13.25-.19.23-.18.45-.34.67-.51.08-.07.17-.14.25-.21.11-.07.2-.15.3-.24.08-.07.17-.14.24-.2.19-.17.36-.32.5-.46.19-.19.37-.37.55-.55l.21-.21c.25-.25.49-.49.7-.71l.21-.21c.14-.14.27-.29.39-.42.08-.08.17-.15.23-.24.71-.74,1.22-1.31,1.59-1.71.06-.08.13-.17.19-.23.27-.34.42-.55.43-.62h.01s.01-.15.04-.31c.04-.27.12-.74.23-1.37.01-.1.04-.19.05-.3.04-.17.06-.33.09-.52.01-.1.04-.2.06-.31.05-.3.11-.63.18-.99.01-.1.04-.19.05-.3.01-.07.04-.15.05-.24.01-.05.01-.1.02-.14.02-.1.04-.2.06-.31.02-.15.06-.31.08-.46.01-.1.04-.2.06-.3.08-.46.17-.93.24-1.35.02-.13.05-.25.06-.37.13-.69.23-1.25.26-1.52.01-.1.02-.15.02-.18l.29-.05s.01.07-.01.17Z" style="fill: #9b8579;"/>
      <path d="M42.1,21.12s-.02.08-.06.23c-.02.08-.05.19-.08.32-.08.3-.18.7-.29,1.1-.02.09-.06.2-.08.3-.14.53-.29,1.07-.39,1.41-.01.02-.01.05-.02.08-.02.07-.05.15-.07.26,0,.01,0,.02-.01.05-.01.07-.04.15-.06.25-.05.17-.08.36-.14.57-.01.08-.04.18-.06.29-.05.2-.11.42-.15.64-.02.1-.05.2-.07.3-.06.25-.11.49-.17.75-.02.1-.05.2-.07.31-.1.42-.19.83-.27,1.24-.04.1-.05.18-.07.27-.07.3-.13.57-.18.82-.02.1-.05.19-.07.27-.1.46-.17.77-.17.78v.05s-.05.04-.05.04c-.01.01-.58.45-1.14.95-.08.06-.15.13-.24.19-.11.11-.21.2-.31.3-.08.07-.17.14-.24.21-.1.11-.18.2-.24.27-.11.14-.26.26-.48.38-.09.05-.21.11-.33.17-.14.07-.31.14-.49.21-.29.13-.59.26-.9.43h-.01c-.1.06-.19.11-.29.15-.17.1-.33.19-.49.3-.1.06-.19.13-.29.2-.17.12-.32.26-.48.4-.07.07-.14.13-.21.2-.08.07-.18.15-.26.23-.17.14-.33.27-.49.4-.11.08-.21.15-.31.23-.11.08-.2.15-.3.23-.15.11-.31.21-.44.3-.12.08-.24.15-.33.21-.06.02-.11.06-.14.08-.01,0-.02.01-.02.01-.05.02-.08.05-.12.07-.02-.11-.02-.21-.02-.32h0s.07-.06.12-.07c.05-.05.11-.07.17-.11.08-.06.18-.12.27-.19.14-.08.3-.19.45-.3.11-.08.21-.15.32-.24.17-.13.34-.26.51-.42.1-.07.18-.14.26-.23.12-.09.23-.2.33-.31.12-.12.25-.23.38-.32.08-.08.18-.14.27-.21.17-.12.34-.23.52-.33.1-.06.2-.11.3-.17.37-.19.74-.36,1.07-.5.1-.05.19-.08.29-.13.12-.06.24-.11.33-.15.26-.13.46-.26.56-.39.05-.07.12-.14.2-.23.07-.07.14-.15.23-.23.12-.11.24-.23.36-.32.07-.08.14-.14.23-.2.5-.45,1.01-.86,1.16-.97.02-.11.08-.37.15-.74.02-.08.05-.18.07-.29.05-.24.11-.51.18-.8.01-.1.04-.19.06-.29.08-.37.18-.76.26-1.15.02-.11.05-.21.06-.31h.01c.06-.26.12-.51.18-.76.01-.1.04-.2.06-.3.06-.25.12-.49.17-.71.02-.11.05-.2.07-.3.06-.23.11-.43.14-.61.04-.11.06-.2.07-.29.01-.02.01-.05.02-.06.02-.11.05-.2.07-.26,0-.01.01-.04.01-.05.11-.37.26-.91.4-1.46.02-.1.05-.2.07-.3.08-.3.15-.57.21-.81.04-.12.06-.24.08-.33.07-.24.11-.39.11-.4l.3.07Z" style="fill: #9b8579;"/>
      <path d="M35.23,28.5l-.95-1.74.26-.14.8,1.46c.16-.1.28-.19.39-.26l2.09-3.62-.26-.87.28-.08.3.99-1.78,3.07c.07,0,.12.03.15.09.07.13.11.21-1.16,1.02l-.13.09Z" style="fill: #9b8579;"/>
      <rect x="32.67" y="29.24" width=".46" height=".3" transform="translate(-4.28 5.64) rotate(-9.21)" style="fill: #9b8579;"/>
    </g>
    <path d="M54.88,13.65v5.37h8.8v8.78h5.37v-14.16h-14.17ZM23.94,13.65v14.16h5.37v-8.78h8.8v-5.37h-14.17Z" style="fill: #231f20;"/>
    <path d="M47.26,66.55v-13.59h-1.69v13.59h-4.04l.95,2.91h8.04l.95-2.91h-4.22ZM45.43,78.6l.27.82h.28l.48-.82h-1.03Z" style="fill: #231f20;"/>
    <path d="M63.68,33.88c-.04-.27-.08-.54-.13-.81-.05-.32-.12-.64-.2-.95-.04-.21-.09-.42-.16-.63-.07-.26-.15-.52-.24-.78-.08-.26-.17-.51-.27-.75-.03-.07-.05-.13-.08-.21-.13-.32-.27-.63-.42-.95-.12-.26-.26-.51-.39-.77-.04-.08-.08-.16-.12-.23-.44-.79-.94-1.56-1.5-2.27-.2-.27-.42-.52-.64-.78-.23-.27-.47-.52-.73-.78-.86-.87-1.83-1.65-2.86-2.32-.32-.21-.66-.42-.99-.6-.01-.01-.04-.03-.05-.03-.23-.13-.46-.26-.68-.36-.47-.24-.94-.44-1.44-.63-.24-.09-.48-.19-.74-.27-.32-.12-.66-.21-.99-.31-.05-.01-.11-.03-.16-.04-.35-.08-.71-.16-1.06-.23-.3-.07-.59-.12-.89-.16-.79-.12-1.61-.17-2.43-.17s-1.63.05-2.42.17c-2.14.3-4.15.99-5.96,1.99-2.85,1.58-5.21,3.95-6.81,6.8-.99,1.81-1.69,3.84-1.99,5.98-.12.79-.17,1.6-.17,2.42s.05,1.63.17,2.42c.3,2.15.99,4.16,2,5.98.39.71.83,1.38,1.32,2.03,1.01,1.34,2.2,2.52,3.56,3.53l1.05,3.22,1.75,5.37,1.03,3.17,1.5,4.65h4.04v-13.59h1.69v13.59h4.22l2.01-6.2.52-1.61,1.75-5.37,1.05-3.24c1.36-.99,2.54-2.18,3.55-3.52.48-.64.93-1.32,1.3-2.03,1.03-1.84,1.73-3.89,2.03-6.08.11-.75.16-1.53.16-2.31s-.05-1.56-.16-2.31ZM61.12,37.17c0,.17-.01.35-.04.51-.03.26-.05.5-.09.74-.34,2.27-1.21,4.36-2.47,6.16-.03.03-.04.05-.07.08-.2.3-.42.58-.64.85-.59.73-1.26,1.4-1.99,1.99-.27.23-.55.44-.85.64-.03.03-.05.04-.08.07-1.8,1.26-3.89,2.14-6.16,2.47-.24.04-.48.07-.74.09-.16.03-.34.04-.51.04-.32.03-.64.04-.98.04s-.66-.01-.98-.04c-.93-.05-1.81-.2-2.69-.43-.2-.05-.42-.11-.62-.17-.04-.01-.08-.01-.12-.03-.21-.08-.43-.15-.63-.23-.13-.04-.26-.09-.39-.15-.36-.15-.73-.31-1.07-.48-.34-.16-.66-.34-.97-.52-.15-.09-.31-.19-.46-.28-.16-.09-.31-.2-.46-.31-.16-.11-.32-.23-.48-.35-.24-.17-.47-.36-.7-.58-.15-.12-.28-.23-.4-.35-.13-.12-.26-.24-.39-.38-.16-.15-.31-.31-.46-.47-.17-.19-.34-.38-.5-.58-.23-.27-.44-.55-.64-.85-.03-.03-.04-.05-.07-.08-1.26-1.8-2.14-3.89-2.47-6.16-.04-.24-.07-.48-.09-.74-.03-.16-.04-.34-.04-.51-.03-.32-.04-.64-.04-.98s.01-.66.04-.98c0-.17.01-.35.04-.51.01-.26.05-.5.09-.74.03-.17.05-.36.09-.54.03-.16.05-.31.09-.46.07-.34.16-.66.26-.98.05-.2.12-.4.2-.6.44-1.29,1.06-2.5,1.83-3.59.03-.03.04-.05.07-.08.2-.3.42-.58.64-.85.16-.2.32-.39.5-.58.15-.16.3-.32.46-.47.13-.13.26-.26.39-.38.12-.12.26-.23.4-.35.23-.21.46-.4.7-.58.16-.12.32-.24.48-.35.15-.11.3-.21.46-.31.15-.09.31-.19.46-.28.31-.19.63-.36.97-.52.16-.08.31-.16.47-.23.15-.07.31-.13.47-.2.19-.08.36-.15.55-.21.21-.08.43-.16.66-.23.21-.07.44-.13.67-.19.12-.04.24-.07.36-.08.28-.07.56-.13.86-.17.48-.09.98-.15,1.48-.17.32-.03.64-.04.98-.04s.66.01.98.04c.17,0,.35.01.51.04.24.01.5.05.74.09.16.01.32.04.48.08.09.01.17.03.27.05.42.08.82.19,1.22.31.2.05.4.12.6.2,1.29.44,2.5,1.06,3.59,1.83.03.03.05.04.08.07.3.2.58.42.85.64.73.59,1.4,1.26,1.99,1.99.23.27.44.55.64.85.03.03.04.05.07.08.77,1.09,1.38,2.3,1.83,3.59.08.2.15.4.2.6.09.32.19.64.26.98.04.15.07.3.09.46.04.17.07.36.09.54.04.24.08.48.09.74.03.16.04.34.04.51.03.32.04.64.04.98s-.01.66-.04.98Z" style="fill: #0d9949;"/>
    <polygon points="69.05 44.58 69.05 58.74 54.01 58.74 55.76 53.37 63.68 53.37 63.68 44.58 69.05 44.58" style="fill: #231f20;"/>
    <polygon points="38.98 58.74 23.94 58.74 23.94 44.58 29.31 44.58 29.31 53.37 37.24 53.37 38.98 58.74" style="fill: #231f20;"/>
    <rect x="10.39" y="35.39" width="18.01" height="1.6" style="fill: #0d9949;"/>
    <rect x="45.63" width="1.6" height="18" style="fill: #0d9949;"/>
    <rect x="64.4" y="35.59" width="18" height="1.6" style="fill: #0d9949;"/>
    <rect x="45.56" y="52.96" width="1.69" height="16.51" style="fill: #fff;"/>
    <rect x="37.45" y="66.55" width="18.35" height="2.91" style="fill: #231f20;"/>
    <polygon points="55.79 70.59 55.79 73.58 54.88 73.93 54.01 74.27 52.37 74.27 52.2 75.73 41.65 75.73 41.48 74.79 40.71 74.62 39.85 74.36 38.98 74.11 38.11 73.68 37.45 73.68 37.45 70.59 55.79 70.59" style="fill: #0d9949;"/>
    <polygon points="40.44 76.5 6.76 169.44 2.22 168.05 36.16 74.79 40.44 76.5" style="fill: #0d9949;"/>
    <polygon points="90.15 167.33 90.15 168.11 86.67 169.33 52.67 76.28 56.4 74.79 90.15 167.33" style="fill: #0d9949;"/>
    <path d="M44.31,176.38s.16.34,0,1.28c-.17.95.94,6.35.94,6.35v4.62l.43.52s2.05,1.37,2.39,0c.35-1.37,0-5.14,0-5.14l.7-.35v-3.52l.51-.16v-35.24h2.66s1.2.09,1.2-.51,0-.08.78-.94c.77-.86,1.2-2.32.85-3.77-.34-1.46-1.96-.17-2.1-1.54s0-22.8,0-22.8c0,0,.39-1.45,1.76-1.88s.6-4.12-.35-4.46c-.94-.35-1.45-.68-1.41-1.89.04-1.2,0-28.71,0-28.71l16.25,45,16.71,46.11s1.64,3.1,2.05,3.53c.43.43,4.12,6.69,4.2,7.88l1.54-.17" style="fill: none; stroke: #0d9949; stroke-miterlimit: 10; stroke-width: .5px;"/>
    <path d="M44.31,144.74l-2.54-.26-1.15-.08-.17-.86v-4.85l.9-1.11v-22.46l-.9-1.2.17-4.47.04-.94.68-.26v-30.04L8.56,168.62s-.94,2.52-1.72,3.64c-.77,1.11-2.91,4.46-3.6,6.35-.68,1.88-2.66,3.33-2.99.85" style="fill: none; stroke: #0d9949; stroke-miterlimit: 10; stroke-width: .5px;"/>
    <path d="M93.43,177.4s-.94-5.87-1.37-8.08c-.43-2.21-2.74-8.29-3.51-9.92s-29.57-81.7-29.57-81.7c0,0-.77-2.74-1.97-3.43v-8.23h-2.99" style="fill: none; stroke: #0d9949; stroke-miterlimit: 10; stroke-width: .5px;"/>
    <path d="M36.16,74.79l.69-.77v-6.69s-.51-1.11.6-1.29,3,0,3,0" style="fill: none; stroke: #0d9949; stroke-miterlimit: 10; stroke-width: .5px;"/>
    <path d="M48.07,143.8v32.49s-.68.94-1.24.78c-.56-.17-.9-.86-1.5-.68-.59.16-1.02,0-1.02,0v-31.64s.51-.68.68-.94c.16-.26,3.08,0,3.08,0Z" style="fill: #0d9949;"/>
    <path d="M52.67,142.13s-.17-.81-.39-.86-.26-1.03-.26-1.03c0,0,.3-.47.32-.73s.54-.6.92-.3.47,1.07.47,1.59.3,1.03-.34,1.33-.65.3-.73,0Z" style="fill: #0d9949;"/>
    <path d="M52.64,112.36s-.12-.82-.33-.88-.19-1.04-.19-1.04c0,0,.33-.45.37-.71s.58-.56.94-.24.4,1.1.36,1.61.23,1.05-.43,1.3-.67.25-.73-.05Z" style="fill: #0d9949;"/>
    <rect x="43.76" y="83.54" width="1.67" height=".64" style="fill: #231f20;"/>
    <rect x="43.76" y="85.26" width="1.67" height=".64" style="fill: #231f20;"/>
    <rect x="43.76" y="88.71" width="1.67" height=".64" style="fill: #231f20;"/>
    <rect x="43.76" y="91.89" width="1.67" height=".64" style="fill: #231f20;"/>
    <rect x="43.76" y="93.58" width="1.67" height=".64" style="fill: #231f20;"/>
    <rect x="43.76" y="96.95" width="1.67" height=".64" style="fill: #231f20;"/>
    <rect x="43.76" y="98.59" width="1.67" height=".64" style="fill: #231f20;"/>
    <rect x="43.76" y="100.22" width="1.67" height=".64" style="fill: #231f20;"/>
    <rect x="43.76" y="101.92" width="1.67" height=".64" style="fill: #231f20;"/>
    <rect x="43.68" y="105.26" width="1.67" height=".64" style="fill: #231f20;"/>
    <rect x="43.76" y="108.51" width="1.67" height=".64" style="fill: #231f20;"/>
    <rect x="43.76" y="110.33" width="1.67" height=".64" style="fill: #231f20;"/>
    <rect x="43.76" y="113.42" width="1.67" height=".64" style="fill: #231f20;"/>
    <rect x="43.68" y="116.98" width="1.67" height=".64" style="fill: #231f20;"/>
    <rect x="43.78" y="118.73" width="1.67" height=".64" style="fill: #231f20;"/>
    <rect x="43.78" y="121.79" width="1.67" height=".64" style="fill: #231f20;"/>
    <rect x="43.76" y="125.32" width="1.67" height=".64" style="fill: #231f20;"/>
    <rect x="43.76" y="126.96" width="1.67" height=".64" style="fill: #231f20;"/>
    <rect x="43.76" y="130.16" width="1.67" height=".64" style="fill: #231f20;"/>
    <rect x="43.78" y="133.53" width="1.67" height=".64" style="fill: #231f20;"/>
    <rect x="43.78" y="135.1" width="1.53" height=".64" style="fill: #231f20;"/>
    <polygon points="43.78 131.96 43.78 132.37 45.57 132.37 45.31 131.96 43.78 131.96" style="fill: #231f20;"/>
    <polygon points="43.7 123.67 43.7 124.08 45.49 124.08 45.23 123.67 43.7 123.67" style="fill: #231f20;"/>
    <polygon points="43.71 115.32 43.71 115.73 45.51 115.73 45.24 115.32 43.71 115.32" style="fill: #231f20;"/>
    <polygon points="43.76 106.89 43.76 107.3 45.56 107.3 45.29 106.89 43.76 106.89" style="fill: #231f20;"/>
    <polygon points="43.81 90.31 43.81 90.83 45.34 90.83 45.11 90.31 43.81 90.31" style="fill: #231f20;"/>
    <polygon points="43.81 82.06 43.81 82.58 45.34 82.58 45.11 82.06 43.81 82.06" style="fill: #231f20;"/>
    <polygon points="43.7 128.47 43.7 129.29 47.01 129.29 47.71 128.47 43.7 128.47" style="fill: #231f20;"/>
    <polygon points="43.7 120.05 43.7 120.87 45.97 120.87 46.46 120.05 43.7 120.05" style="fill: #231f20;"/>
    <polygon points="43.7 111.78 43.7 112.61 45.97 112.61 46.46 111.78 43.7 111.78" style="fill: #231f20;"/>
    <polygon points="43.7 103.5 43.7 104.33 45.97 104.33 46.46 103.5 43.7 103.5" style="fill: #231f20;"/>
    <polygon points="43.7 95.17 43.7 96 45.97 96 46.46 95.17 43.7 95.17" style="fill: #231f20;"/>
    <polygon points="43.7 86.89 43.7 87.72 45.97 87.72 46.46 86.89 43.7 86.89" style="fill: #231f20;"/>
    <polygon points="46.46 78.61 45.98 79.43 43.69 79.43 43.69 78.61 46.46 78.61" style="fill: #231f20;"/>
    <rect x="43.76" y="80.31" width="1.67" height=".64" style="fill: #231f20;"/>
    <line x1="51.38" y1="76.48" x2="51.38" y2="107.86" style="fill: none; stroke: #231f20; stroke-miterlimit: 10; stroke-width: .25px;"/>
    <line x1="51.38" y1="109.15" x2="51.38" y2="112.87" style="fill: none; stroke: #231f20; stroke-miterlimit: 10; stroke-width: .25px;"/>
    <line x1="51.38" y1="113.74" x2="51.38" y2="137.69" style="fill: none; stroke: #231f20; stroke-miterlimit: 10; stroke-width: .25px;"/>
    <path d="M51.38,131.15s-3.39,5.91-10.03,3.21" style="fill: none; stroke: #231f20; stroke-dasharray: 12 12 4 4 8 8; stroke-miterlimit: 10; stroke-width: .25px;"/>
    <path d="M40.45,109.55s6.9-3.69,10.93,3.04" style="fill: none; stroke: #231f20; stroke-dasharray: 12 12 4 4 8 8; stroke-miterlimit: 10; stroke-width: .25px;"/>
    <path d="M51.38,101.92s-3.09,5.73-10.03,3.34" style="fill: none; stroke: #231f20; stroke-dasharray: 12 12 4 4 8 8; stroke-miterlimit: 10; stroke-width: .25px;"/>
    <path d="M41.34,79.9s1.96-.73,4.39-.34c.44.07.91.19,1.38.35,1.44.48,2.94,1.44,4.26,3.2" style="fill: none; stroke: #231f20; stroke-dasharray: 12 12 4 4 8 8; stroke-miterlimit: 10; stroke-width: .25px;"/>
    <text transform="translate(45.91 131.29)" style="fill: #be1e2d; font-family: MyriadPro-Regular, &apos;Myriad Pro&apos;; font-size: 9.4px;"><tspan x="0" y="0">7</tspan></text>
    <text transform="translate(46.46 122.43)" style="fill: #231f20; font-family: MyriadPro-Regular, &apos;Myriad Pro&apos;; font-size: 6.04px;"><tspan x="0" y="0">1</tspan></text>
    <text transform="translate(46.84 114.06)" style="fill: #231f20; font-family: MyriadPro-Regular, &apos;Myriad Pro&apos;; font-size: 6.04px;"><tspan x="0" y="0">2</tspan></text>
    <text transform="translate(46.84 105.85)" style="fill: #231f20; font-family: MyriadPro-Regular, &apos;Myriad Pro&apos;; font-size: 6.04px;"><tspan x="0" y="0">3</tspan></text>
    <text transform="translate(46.87 80.95)" style="fill: #231f20; font-family: MyriadPro-Regular, &apos;Myriad Pro&apos;; font-size: 6.04px;"><tspan x="0" y="0">6</tspan></text>
    <text transform="translate(46.41 89.03)" style="fill: #231f20; font-family: MyriadPro-Regular, &apos;Myriad Pro&apos;; font-size: 6.04px;"><tspan x="0" y="0">5</tspan></text>
    <text transform="translate(46.62 97.6)" style="fill: #231f20; font-family: MyriadPro-Regular, &apos;Myriad Pro&apos;; font-size: 6.04px;"><tspan x="0" y="0">4</tspan></text>
    <path d="M2.22,169.09c-.04.3-1.8,9.3-1.8,9.3,0,0,.09,1.71.9.86s.9-3.09,1.84-4.37,2.96-4.5,2.96-4.5l-3.9-1.29Z" style="fill: #231f20;"/>
    <path d="M44.99,177.79l.24,2.59.32,1.35.34,1.91.3.66v4.14s.69.06.64,0,.17-5.81.17-5.81c0,0,.26-.26.36-.39s-.3-1.22,0-1.44.41-1.26.41-1.69.3-1.33.3-1.33h-3.09Z" style="fill: #231f20;"/>
    <path d="M87.22,170.21s3.87,6,4.93,9.1c0,0,.61-.05.51-.35s-1.27-2.93-1.45-3.81-.63-6.22-.63-6.22l-3.38,1.29Z" style="fill: #231f20;"/>
    <polygon points="41.54 138.85 51.38 138.85 51.38 142.81 41.54 142.98 41.54 138.85" style="fill: #231f20;"/>
  </g>
  <text transform="translate(103.13 113.74)" style="font-family: Bahnschrift-SemiBoldSemiCondensed, Bahnschrift; font-size: 71.18px; font-variation-settings: &apos;wght&apos; 600, &apos;wdth&apos; 87; font-weight: 600;"><tspan x="0" y="0" style="fill: #0d9949;">Cont</tspan><tspan x="125.43" y="0" style="fill: #231f20; letter-spacing: -.01em;">o</tspan><tspan x="157.44" y="0" style="fill: #231f20;">urs, Ltd</tspan></text>
  <text transform="translate(107.2 135.11)" style="fill: #231f20; font-family: Bahnschrift-SemiLight, Bahnschrift; font-size: 16px; font-variation-settings: &apos;wght&apos; 350, &apos;wdth&apos; 100; font-weight: 300;"><tspan x="0" y="0">Sur</tspan><tspan x="25.58" y="0" style="letter-spacing: 0em;">v</tspan><tspan x="33.42" y="0" style="letter-spacing: -.02em;">e</tspan><tspan x="41.69" y="0">ys, Mapping, Construction </tspan><tspan x="229.48" y="0" style="letter-spacing: -.05em;">T</tspan><tspan x="236.32" y="0">echnical Services</tspan></text>
</svg>