<?xml version="1.0" encoding="UTF-8"?>
<svg id="Layer_1" data-name="Layer 1" xmlns="http://www.w3.org/2000/svg" viewBox="0 0 177.18 360.07">
  <g>
    <path d="M117.15,68.61c0-1.44-.11-2.84-.32-4.21v-.02c-.02-.16-.05-.32-.07-.45-.88-5.47-3.29-10.47-6.76-14.48-.14-.16-.25-.29-.38-.43-.23-.27-.47-.52-.7-.77-.11-.11-.2-.2-.32-.32-.45-.45-.92-.88-1.4-1.31-.14-.14-.27-.25-.43-.36-4.32-3.69-9.73-6.15-15.68-6.8-.16-.05-.34-.05-.52-.07-.92-.09-1.85-.14-2.79-.14-2.88,0-5.68.43-8.31,1.22-.23.05-.43.11-.65.2-1.35.43-2.68.95-3.94,1.6-.18.07-.38.16-.56.27-.95.5-1.87,1.04-2.75,1.64-.18.09-.34.2-.5.34-3.99,2.75-7.25,6.49-9.44,10.83-.09.16-.18.34-.27.52-.86,1.78-1.53,3.65-2.03,5.61-.04.18-.09.36-.14.54-.5,2.12-.74,4.32-.74,6.58,0,.68.02,1.33.09,2v.02c0,.2,0,.41.05.61.09,1.22.27,2.43.54,3.6,0,.07.02.09.02.14v.02c.02.07.02.11.04.16.02.09.05.18.07.27.99,4.19,2.91,8.04,5.5,11.33.09.14.2.25.29.36.27.34.56.63.86.95v.02h.02c5.38,6.01,13.15,9.86,21.85,9.86,1.01,0,2-.09,3-.18h.02c3.81-.41,7.41-1.49,10.63-3.18.14-.07.25-.14.38-.2,6.17-3.38,10.99-8.9,13.47-15.56.02-.02.02-.04.05-.09.43-1.15.79-2.36,1.06-3.6.05-.2.09-.41.14-.61.27-1.26.45-2.55.52-3.87l.02-.02-.02-.02c.02-.29.02-.61.04-.92.02-.36.05-.72.05-1.08ZM115.91,74.78c-.02.18-.07.34-.11.52-.05.2-.09.38-.14.56-.2.83-.45,1.62-.74,2.41-.05.14-.09.25-.14.36-.02.07-.05.11-.07.16-.09.29-.2.59-.32.86-.09.18-.16.36-.23.52-.34.77-.7,1.49-1.08,2.21-.09.16-.18.32-.27.47-.59,1.04-1.24,2-1.94,2.95-.14.16-.25.32-.38.47-.68.88-1.42,1.71-2.18,2.5-.11.14-.25.27-.38.38-1.35,1.33-2.86,2.55-4.46,3.58-.18.14-.36.25-.56.36-.36.23-.72.45-1.08.65-.23.11-.45.25-.68.36-.2.11-.43.23-.65.34-.18.09-.36.18-.56.25-.54.27-1.1.52-1.69.72-.18.09-.36.16-.54.2-.16.07-.29.14-.45.18h-.02c-.2.07-.41.16-.63.23-.56.18-1.17.36-1.76.5-.2.05-.38.11-.59.14-.23.07-.45.11-.7.16-.18.04-.36.07-.54.09h-.02c-.65.14-1.31.25-2,.32-.18.02-.38.05-.59.05-.86.09-1.73.14-2.61.14-.27,0-.52,0-.79-.02-.25,0-.5,0-.74-.02h-.02c-.2,0-.41-.02-.63-.05h-.02c-.2,0-.38-.02-.56-.04-.32-.02-.63-.07-.95-.11-.23-.02-.45-.04-.68-.09-.65-.09-1.31-.23-1.94-.36-.18-.05-.38-.09-.56-.14-.86-.2-1.69-.47-2.52-.77-.02,0-.04,0-.07-.02-.38-.11-.74-.25-1.13-.43l-.09-.02s-.02-.02-.07-.04c-.09-.02-.2-.07-.29-.11-.18-.07-.36-.14-.52-.23-1.17-.5-2.3-1.08-3.36-1.73-.16-.11-.32-.2-.47-.32-.27-.16-.52-.32-.77-.5-.16-.11-.32-.23-.47-.34-.34-.23-.68-.5-.99-.74-.16-.11-.32-.23-.45-.34s-.25-.23-.36-.32c-.16-.14-.32-.25-.45-.41-.25-.2-.5-.43-.74-.65-.14-.14-.29-.27-.43-.43-.27-.23-.47-.43-.72-.7v-.02c-.18-.18-.34-.34-.52-.5v-.05l-.02-.02v-.02c-.2-.2-.38-.41-.56-.63-.18-.2-.36-.43-.54-.65-.18-.2-.34-.43-.52-.65-1.22-1.62-2.27-3.36-3.13-5.23-.11-.18-.18-.36-.25-.56-.54-1.17-.99-2.39-1.33-3.65-.07-.18-.11-.36-.16-.56-.02-.09-.05-.18-.09-.29-.05-.18-.09-.36-.11-.54v-.02c-.07-.2-.11-.43-.16-.63-.05-.2-.07-.38-.09-.56-.09-.43-.16-.86-.2-1.28-.05-.2-.07-.38-.07-.56-.05-.16-.07-.29-.07-.43-.02-.18-.05-.36-.05-.54-.02-.05-.02-.09,0-.14-.02-.14-.05-.25-.02-.38-.02-.09-.05-.18-.02-.25-.02-.11-.02-.23-.02-.34-.02-.32-.04-.65-.02-.97-.02-.14-.02-.25-.02-.38v-.2c0-.41.02-.77.04-1.17v-.02c0-.18,0-.38.05-.56,0-.52.07-1.01.14-1.51,0-.2.02-.38.07-.56.09-.79.25-1.53.43-2.3v-.02c.02-.18.07-.36.11-.54.23-.92.52-1.85.83-2.75.07-.18.14-.36.23-.56.25-.72.56-1.46.9-2.16.02-.07.07-.11.09-.18.05-.11.11-.23.16-.32.05-.11.11-.23.16-.32.07-.14.16-.27.23-.41.09-.18.18-.34.27-.5.68-1.19,1.42-2.32,2.25-3.4.11-.16.25-.34.38-.5.18-.23.38-.45.56-.68.18-.23.36-.43.56-.63.16-.2.36-.41.56-.59.11-.16.25-.29.38-.43.32-.34.65-.65.99-.95.14-.14.29-.27.43-.38.61-.56,1.26-1.08,1.94-1.55.16-.14.32-.25.47-.34.16-.14.32-.25.47-.34.59-.41,1.19-.79,1.82-1.15.16-.09.34-.2.52-.29.09-.05.18-.09.27-.16.18-.09.38-.18.56-.29.45-.23.92-.43,1.4-.63.2-.11.41-.2.63-.25.56-.27,1.15-.47,1.73-.68.2-.07.43-.14.65-.23.74-.23,1.51-.43,2.3-.59.18-.05.38-.09.56-.11.09-.02.16-.05.25-.05.18-.05.38-.09.59-.11,1.04-.18,2.07-.29,3.13-.34.2-.02.41-.05.59-.05.36-.02.7-.02,1.06-.02.81,0,1.62.04,2.41.11h.02c.34.02.65.04.99.11.45.02.88.09,1.31.18.2.02.38.04.56.09,3.58.65,6.94,1.98,9.91,3.85.16.11.32.2.47.34,0-.02.02,0,.02,0,.5.29.97.63,1.42.97.16.11.32.23.45.36.34.25.65.52.97.79.16.11.32.25.45.38.07.04.11.09.18.16.14.11.27.23.41.36.25.23.5.47.72.72.18.16.36.34.52.52.23.23.45.45.63.7.16.14.27.27.38.43,1.46,1.69,2.73,3.54,3.76,5.54v.02s.04.07.07.09c1.19,2.36,2.09,4.91,2.59,7.59.04.11.07.2.07.32.02.09.05.18.05.27.05.2.09.41.11.63.2,1.4.32,2.82.32,4.26,0,.29,0,.59-.02.88,0,.18,0,.34-.02.52,0,.2,0,.41-.04.61.02.07.02.11,0,.18v.02c0,.2-.02.38-.05.59v.02c-.02.18-.05.36-.07.56-.07.72-.18,1.44-.34,2.16-.02.2-.07.41-.14.63Z" style="fill: #9b8579;"/>
    <path d="M65.71,82.1l-.34,4.48-.05.56-.25-.02c-.09-.11-.2-.23-.29-.36l.07-.83.27-3.69-.92-1.53-.36-.56-.72-1.19-.52-1.94-.63-.5s-.02-.02-.05-.02h-2.16v-.56h2.36l.07.07s.02.02.07.02l.83.65.02.09.54,2,.86,1.37.34.56.86,1.4Z" style="fill: #9b8579;"/>
    <path d="M66.5,81.09l-.05-.07c-.07-.11-.14-.2-.23-.32-.11-.18-.25-.38-.36-.56-.97-1.49-1.87-2.95-1.98-3.36v-.02l.02-.16c0-.07.02-.16-.16-.43-.2-.25-.56-.65-1.28-1.31-.16-.14-.32-.29-.52-.47-.16-.14-.34-.29-.54-.45l-.07-.07h-2.05v.56h1.85s.07.07.11.09c.18.16.36.32.54.47.47.43.92.86,1.22,1.17.16.16.27.29.32.38l-.02.07s0,.09.02.16c.11.56.95,1.94,1.87,3.36.11.18.25.38.36.56.14.2.27.38.38.56-.02.63-.09,4.17-.02,5.97,0,.38,0,.65.02.83v.02h.02l.52-.07.02-.07v-.05l-.02-.02v-.02c-.11-1.35.02-6.62.02-6.69v-.09Z" style="fill: #9b8579;"/>
    <path d="M100.96,87.01h-.02c-.07-.04-.14-.09-.2-.14-.09-.04-.2-.14-.29-.18-.09-.07-.18-.14-.23-.18-.02-.11-.07-.25-.16-.41-.2-.36-.54-.77-.81-1.06l-.88-.7-.54-.45c-.02.23-.02.47-.02.7l.54.43.52.43c.41.45.79.97.79,1.1,0,.11.05.23.16.32.09.11.25.23.45.36.07.04.11.07.18.11.2.16.63.41.79.61l-.27-.95ZM100.96,87.01h-.02c-.07-.04-.14-.09-.2-.14-.09-.04-.2-.14-.29-.18-.09-.07-.18-.14-.23-.18-.02-.11-.07-.25-.16-.41-.2-.36-.54-.77-.81-1.06l-.88-.7-.54-.45c-.02.23-.02.47-.02.7l.54.43.52.43c.41.45.79.97.79,1.1,0,.11.05.23.16.32.09.11.25.23.45.36.07.04.11.07.18.11.2.16.63.41.79.61l-.27-.95ZM101.77,87.8l-.02-.07c-.16-.25-.45-.47-.79-.72h-.02c-.07-.04-.14-.09-.2-.14-.09-.04-.2-.14-.29-.18-.09-.07-.18-.14-.23-.18-.02-.11-.07-.25-.16-.41-.2-.36-.54-.77-.81-1.06l-.88-.7-.54-.45-2.18-1.73-.25-.47-.2-.38-.25-.5h-.02l-.16.02s-.74,0-1.58.02h-.05c-1.01,0-2.21,0-2.52-.02-.43-.25-1.64-3.49-2.09-4.73-.2-.54-.36-.99-.45-1.19-.41-.92-2.57-2.21-3.15-2.32-.2-.18-.72-1.26-1.1-2.21-.38-.86-1.35-3.24-1.28-4.08.11-1.1-.52-3.94-.54-4.08l-.02-.07-3.65-3.47-.41-.38-.2-.2-2.39-.65-.54-.16-2.77-.77c-.45-.16-.9-.36-1.24-.54-.23-.14-.41-.23-.5-.32l-.07-.07c-.18-.41-1.04-.47-2.55-.23-.02-.34-.16-.92-.61-1.64-.16-.27-.36-.59-.63-.9l-.34.29-.09.09c.2.25.38.47.5.68l.04.04s.05.07.07.09c.59,1.01.5,1.62.5,1.64l-.09.41.41-.09c1.06-.18,2.14-.23,2.3-.14.05.11.16.2.29.32.14.11.29.2.47.29.5.27,1.08.5,1.35.61l2.82.77.54.14,2.18.59.18.18.38.36,3.54,3.33c.09.5.59,2.91.5,3.83-.11,1.13,1.17,4.03,1.33,4.35,1.04,2.55,1.37,2.55,1.53,2.55.34.04,2.41,1.24,2.73,1.98.09.2.25.63.45,1.17.95,2.57,1.51,3.92,1.94,4.57l-3.9-4.84c-.36-.5-2.18-3.04-2.39-3.24-.23-.32-3.06-5.81-4.93-9.44l-.05-.11-3.54-1.06-.61-.2-1.91-.56-.04-.02-.43-.32-3.11-2.3-.45-.34-2.84-2.09-3.02-1.82-.25-.16-.29.5.27.16,2.97,1.78,2.86,2.12.45.32,2.97,2.23.45.32.11.09,1.82.56.63.18,3.56,1.1c1.78,3.49,4.73,9.23,4.95,9.46.16.16,1.51,2.05,2.34,3.2l6.35,7.97,2.84,2.14.02.02.04.02.56.43,2.41,1.8.05.05.45.72.41.65.41.63v.02l2.03,3.27.29.5.38.61v-7.14c0-.09-.02-.18-.07-.27ZM99.33,90.12l-.38-.65-.63-.99v-.02l-.59-.45-2.41-1.8s-.05-.07-.07-.09l-.02-.02-.56-.38-2.3-1.73-2.25-2.84c.16.18.29.25.41.27.59.05,3.33,0,4.08,0l.23.43.34.65.16.11,2.48,2,.54.43.52.43c.41.45.79.97.79,1.1,0,.11.05.23.16.32.09.11.25.23.45.36.07.04.11.07.18.11.2.16.63.41.79.61l.05.14v5.13l-1.94-3.11ZM100.96,87.01h-.02c-.07-.04-.14-.09-.2-.14-.09-.04-.2-.14-.29-.18-.09-.07-.18-.14-.23-.18-.02-.11-.07-.25-.16-.41-.2-.36-.54-.77-.81-1.06l-.88-.7-.54-.45c-.02.23-.02.47-.02.7l.54.43.52.43c.41.45.79.97.79,1.1,0,.11.05.23.16.32.09.11.25.23.45.36.07.04.11.07.18.11.2.16.63.41.79.61l-.27-.95Z" style="fill: #9b8579;"/>
    <path d="M110.6,86.45l-2.12-3.96c-3.56-1.16-4.01-1.54-4.07-1.76-.28-.27-1.97-1.16-3.51-1.88l-4.54-2.38-4.62-2.67-1.51-2.05c-.49-.8-1.75-2.85-1.84-2.98-.03-.05-3.07-4.81-3.07-6.36,0-.96.59-2.2,1.02-3.1.13-.27.28-.58.35-.77-.34-.09-1.26-.16-1.95-.22-2.12-.16-2.88-.26-2.97-.71-.07-.35-1.13-2.31-1.83-3.56-.73-.05-2.06-.24-2.15-.94-.42-.19-2.58-.06-4.43.2h-.11s-2.36-1.67-2.36-1.67c-.62-.42-3.74-2.55-4.08-3.23l.5-.25c.2.4,2.4,2.01,3.9,3.02l2.18,1.56c1.35-.18,4.25-.5,4.8-.03.1.08.15.2.15.32,0,.15.76.42,1.78.47h.15s.08.14.08.14c.3.53,1.75,3.11,1.96,3.79.28.16,1.65.26,2.47.33,1.95.15,2.51.21,2.51.66,0,.21-.14.51-.44,1.13-.41.85-.97,2.02-.97,2.86,0,1.24,2.67,5.59,2.97,6.04.11.16,1.77,2.86,1.84,2.97l1.46,1.98,4.48,2.56,4.52,2.37c3.18,1.49,3.71,1.96,3.8,2.19.32.24,2.15.92,3.81,1.46l.11.04,2.23,4.16-.5.27Z" style="fill: #9b8579;"/>
    <path d="M97.81,95.89l-.48-1.48-3.57-1.99-3.03-2.82-2.04-4.31-4.27-5.95-4.46-2.94-.03-.1-1.91-6.17c-.4-.33-2.48-2.06-3.08-2.62-.5-.48-3.08-1.79-4.03-2.25l-3.57-1.95-2.11-.68-4.85-3.93.35-.44,4.81,3.89,2.02.63,3.61,1.96c.35.17,3.5,1.72,4.15,2.34.63.6,3.09,2.63,3.11,2.65l.06.05,1.93,6.24,4.41,2.93,4.32,6.04,2.04,4.31,2.87,2.66,3.71,2.06.55,1.69-.54.17Z" style="fill: #9b8579;"/>
    <path d="M68.08,89.8l-.52-.22,1.05-2.52c.02-.48.2-4.32,0-5.34-.19-1-1.5-2.25-2.5-2.66-1.1-.45-1.03-2.26-.99-2.77-.35-.47-2.02-2.77-2.57-3.33-.38-.38-2.3-.43-3.54-.35l-.04-.56c.54-.04,3.29-.19,3.98.52.64.65,2.61,3.37,2.69,3.48l.06.09v.11c-.07.54-.08,2.01.62,2.3,1.15.47,2.6,1.85,2.84,3.07.22,1.14.01,5.34,0,5.52l-.02.09-1.07,2.57Z" style="fill: #9b8579;"/>
    <polygon points="67.02 88.63 66.46 88.59 66.77 83.32 66.63 80.7 61.26 80.7 61.26 80.14 67.16 80.14 67.33 83.32 67.02 88.63" style="fill: #9b8579;"/>
    <path d="M69.94,91.55l-.41-.38,1.45-1.57-.43-3.28v-.04c.25-2,.49-4.27.44-4.54-.09-.17-1.42-2.13-2.24-3.32-.03-.02-.58-.66-2.39-4.68-1.72-3.86-7.52-3.18-7.58-3.18l-.07-.56c.26-.03,6.27-.73,8.16,3.5,1.75,3.91,2.29,4.54,2.31,4.56.54.78,2.22,3.22,2.33,3.49.09.22-.05,1.82-.41,4.76l.46,3.47-1.63,1.77Z" style="fill: #9b8579;"/>
    <path d="M69.24,90.87l-.51-.25,1.27-2.6-.43-2.65.43-1.81-1.27-3.97-1.95-2.35-.81-2.38-2.14-2.31c-1.14-.33-4.01-1.06-4.9-.91l-.1-.55c1.21-.22,4.82.82,5.23.94l.07.02,2.35,2.57.81,2.39,1.95,2.36,1.33,4.17-.44,1.85.44,2.71-1.35,2.76Z" style="fill: #9b8579;"/>
    <path d="M71.54,92.62l-.52-.22,1.15-2.76v-6.52l-.42-3.74-2.47-2.13-1.39-3.48-2.63-3.29c-.76-.17-5.48-1.25-6.59-1.6l.17-.54c1.16.37,6.59,1.6,6.64,1.61l.1.02,2.82,3.54,1.37,3.45,2.51,2.12.44,3.99v6.66s-1.19,2.87-1.19,2.87Z" style="fill: #9b8579;"/>
    <path d="M72.66,93.46l-.43-.37,2.08-2.44-.74-6.11v-5.12s-1.34-2.09-1.34-2.09l-2.18-1.94c-1.1-1.79-2.93-4.71-3.18-4.95-.25-.2-1.79-1.18-2.4-1.57l-5.8-1.77.16-.54,5.9,1.81c.22.14,2.16,1.36,2.49,1.64.33.28,2.56,3.89,3.28,5.05l2.18,1.93,1.45,2.27v5.26l.77,6.32-2.24,2.63Z" style="fill: #9b8579;"/>
    <path d="M76.7,95.4l-.56-.09.33-2.08c.18-.63.62-2.31.54-2.97-.07-.59-.53-.88-1.06-1.21-.11-.07-.22-.14-.33-.21-.52-.35-.17-1.55.75-4.22.29-.85.66-1.9.64-2.11-.1-.58-2.53-8.76-2.68-9.23-.1-.12-1.08-.81-1.87-1.36-1.12-.79-2.4-1.68-2.92-2.2-.59-.59-1.27-.93-1.82-1.21-.34-.17-.63-.32-.85-.49-.49-.39-5.81-3.15-7.84-2.87l-.08-.56c2.28-.35,7.72,2.54,8.27,2.98.17.14.45.27.76.43.59.3,1.32.66,1.97,1.31.49.49,1.74,1.36,2.84,2.14,1.72,1.2,2.01,1.43,2.08,1.64.02.07,2.59,8.61,2.71,9.31.05.29-.15.92-.66,2.39-.39,1.13-1.12,3.25-.94,3.59.08.04.18.11.29.17.57.36,1.22.76,1.32,1.62.11.91-.53,3.07-.55,3.16l-.32,2.04Z" style="fill: #9b8579;"/>
    <path d="M80.8,89.76c-.11.16-.29.25-.52.2-.72-.04-1.22,1.22-1.31,1.44l-.09,4.41-.5-.02h-.07v-.02l.11-4.5c.02-.07.65-1.96,1.91-1.85.18-.23-.16-1.42-1.01-3.56-.11-.29-.23-.54-.27-.72-.34-.95-.07-3.63-.02-4.12-.68-2.66-1.78-6.91-1.96-7.23-.02-.02-.14-.18-.32-.36-.41-.52-1.37-1.69-1.67-1.85-.41-.25-1.73-1.98-2.25-2.68h-2.21l-1.37-.9-.47-.32-2.73-1.8s-.07-.04-.11-.07c-.16-.11-.34-.2-.54-.34-.29-.18-.63-.38-.99-.61-.18-.09-.36-.2-.54-.29-1.49-.9-3.11-1.82-4.12-2.3v-.02c-.23-.09-.41-.18-.54-.23.05-.18.09-.36.14-.54.16.04.32.11.52.23,1.15.54,3.04,1.62,4.48,2.48.18.09.36.2.52.29.45.29.83.52,1.1.68.23.14.36.23.38.25l.14.11h.02l2.73,1.78.47.32,1.08.72h2.32l.09.11c.88,1.19,1.94,2.5,2.18,2.64.34.2,1.08,1.08,1.82,1.98.14.18.25.32.29.36.18.18.88,2.7,2.09,7.5v.09c-.09.86-.27,3.2-.02,3.94.07.16.16.41.27.7.92,2.27,1.33,3.58.95,4.1Z" style="fill: #9b8579;"/>
    <path d="M81.4,96.96l-.55-.13.38-1.54.32-4.56.42-3.56c-.2-.51-1.53-3.77-2.2-4.63l.44-.35c.77.99,2.24,4.67,2.3,4.83l.03.07-.44,3.69-.32,4.6-.38,1.59Z" style="fill: #9b8579;"/>
    <path d="M83.64,97.53l-.82-1.71,1.32-3.37c.01-.45.1-3.84,0-5.31-.1-1.48-.9-2.43-.9-2.44l-3.49-6.52.5-.27,3.45,6.47h0s.89,1.05,1,2.72c.11,1.59,0,5.26,0,5.41l-.02.09-1.25,3.18.72,1.49-.51.24Z" style="fill: #9b8579;"/>
    <path d="M86.57,97.86l-.42-.38c1.01-1.12,2.62-2.92,2.93-3.33-.04-.16-.15-.64-.28-1.17-.83-3.46-1.3-5.54-1.27-5.89-.16-.66-4.74-6.47-5.39-6.79l.24-.51c.71.34,5.79,6.56,5.71,7.35-.02.39.87,4.11,1.25,5.71.31,1.3.31,1.31.31,1.36,0,.14,0,.22-3.09,3.64Z" style="fill: #9b8579;"/>
    <path d="M85.55,97.49l-.54-.17c.75-2.37,1.05-3.04,1.21-3.25.08-.67-.55-5.84-.67-6.26l.54-.17c.02.06.97,6.08.56,6.77h0c-.15.2-.68,1.72-1.11,3.08Z" style="fill: #9b8579;"/>
    <path d="M90.83,97.77l-.53-.19c.11-.31.39-1.23.31-1.73-.1-.67-1.49-6.86-1.51-6.92l.55-.12c.06.26,1.41,6.27,1.51,6.96.12.75-.32,1.96-.34,2.01Z" style="fill: #9b8579;"/>
    <polygon points="93.09 97.21 91.91 92.58 92.45 92.44 93.64 97.07 93.09 97.21" style="fill: #9b8579;"/>
    <polygon points="77.59 95.39 77.03 95.32 78.21 86.28 77.62 78.12 75.81 73.88 71.28 73.27 61.31 75.09 59.67 75.73 59.47 75.21 61.15 74.55 71.27 72.7 71.31 72.7 76.2 73.37 78.18 78.03 78.77 86.3 77.59 95.39" style="fill: #9b8579;"/>
    <path d="M113.06,82.99l-7.08-3.99-3.6-.69-.06-.06-4.45-4.42c-1.37-.93-8.44-5.79-8.78-6.91-.08-.27-.28-.81-.52-1.49-1.3-3.62-1.87-5.43-1.62-5.94.2-.41.42-1.98.54-3.09l-4.76-.73-1.81-2.42-3.7-2.2-4.47-.02-2.67-1.11-1.86-2.84.47-.31,1.77,2.69,2.46,1.02h4.46l3.96,2.38,1.71,2.28,5.06.78-.03.27c-.03.29-.28,2.87-.62,3.55-.15.48,1.11,4,1.65,5.5.25.69.45,1.25.53,1.52.18.62,4.52,3.86,8.6,6.64l4.43,4.4,3.56.7,7.12,4.01-.28.49Z" style="fill: #9b8579;"/>
    <path d="M114.39,80.3l-3.68-2.01-5.97-1.83-.05-.05c-2.15-2.25-4.62-4.66-5.02-4.8-.62-.03-4.09-2.76-4.22-3.54-.1-.38-1.96-1.59-2.75-2.11-.42-.28-.76-.5-.92-.62-.38-.31-.84-1.4-1.4-2.8-.2-.51-.39-.99-.49-1.16-.19-.32-.13-.95-.01-1.96.07-.59.18-1.58.05-1.76-.27-.27-.58-1.22-1.06-2.73-.24-.75-.48-1.54-.6-1.73-.27-.24-2.48-.35-4.37-.29h-.13s-.09-.1-.09-.1c-1-1.19-2.27-2.52-2.57-2.6h0c-.48,0-5.56-1.35-6.57-1.63l-.11-.06-3.8-3.23.37-.43,3.75,3.19c2.31.62,6.04,1.58,6.39,1.59.49,0,1.83,1.44,2.89,2.69,2.01-.04,4.41.02,4.74.57.15.24.35.86.66,1.86.29.92.73,2.31.93,2.51.3.31.24,1.04.1,2.22-.06.57-.16,1.44-.06,1.61.12.2.3.66.53,1.23.35.87.93,2.34,1.23,2.57.14.11.48.33.87.59,1.97,1.29,2.92,1.99,3,2.49.13.54,3.23,3,3.73,3.08.53.03,3.17,2.67,5.31,4.91l5.88,1.81,3.73,2.03-.27.49Z" style="fill: #9b8579;"/>
    <polygon points="83.6 47.21 77.73 47.21 73.41 43.48 73.78 43.06 77.94 46.64 83.29 46.64 85.62 43.16 86.22 39.54 86.78 39.63 86.12 43.43 83.6 47.21" style="fill: #9b8579;"/>
    <polygon points="79.98 44.63 76.17 42.15 76.48 41.68 80.01 43.98 82 42.93 82.52 39.94 83.07 40.04 82.51 43.3 79.98 44.63" style="fill: #9b8579;"/>
    <path d="M106.05,88.89l-4.71-.57-1.23-4.01-2.18-2.39-7.27-1.63-.04-.17c-.62-2.67-.77-3.54-.77-3.87-.19-.45-2.29-3.81-3.59-5.87l-3.72-7.7-1.95-4.48-3.38-1.88-6.59-1.67-4.68-3.92v-1.56h.56v1.3l4.43,3.71,6.52,1.63,3.58,1.99,2.02,4.65,3.7,7.66c3.17,4.99,3.68,5.89,3.66,6.17,0,.29.37,1.97.72,3.54l7.09,1.59,2.41,2.67,1.14,3.72,4.35.53-.07.56Z" style="fill: #9b8579;"/>
    <path d="M108.04,89.33c-.21-.47-2.65-2.25-3.51-2.77-.65-.4-4.75-5.45-5.42-6.27l-5.97-2.49-4.45-5.38-3.14-6.76-3.02-6.14.51-.25,3.02,6.15,3.12,6.73,4.34,5.24,5.98,2.5c1.82,2.25,4.88,5.93,5.32,6.2.28.17,3.37,2.25,3.72,3.02l-.51.24Z" style="fill: #9b8579;"/>
    <path d="M114.84,78.91c-.26-.26-4.24-2.9-6.7-4.51l-9.27-5.59c-6.46-6.73-6.41-7.02-6.38-7.2-.02-.34-1.17-4.21-1.9-6.61l-3.53-4.15-3.15-.78.13-.55,3.32.82,3.74,4.44c.85,2.78,1.85,6.13,1.94,6.82.27.51,3.92,4.41,6.21,6.79l9.19,5.53c6.99,4.58,6.98,4.62,6.88,4.9l-.53-.2.26.1-.21.18Z" style="fill: #9b8579;"/>
    <path d="M98.65,52.4h-6.13l-.08-.12c-1.25-1.78-3.34-4.84-3.34-5.35s1.23-4.15,1.48-4.87l.53.18c-.71,2.07-1.45,4.4-1.45,4.69.06.34,1.64,2.75,3.16,4.91h5.61c.17-.61.72-1.48,1.94-1.52,1.34-.04,4.45-1.21,4.92-1.38l1.89-1.99.41.39-2.03,2.11c-.15.06-3.62,1.4-5.17,1.45-1.25.04-1.44,1.23-1.45,1.28l-.03.24h-.24Z" style="fill: #9b8579;"/>
    <path d="M96.79,48.63l-4.26-3.44v-5.2h.56v4.94l3.75,3.02c1.02-.59,4.32-2.52,4.63-2.62.18-.07,1.08-.78,1.82-1.4l.37.43c-.38.32-1.66,1.39-2,1.51-.26.1-3.01,1.69-4.69,2.67l-.17.1Z" style="fill: #9b8579;"/>
    <path d="M92.33,51.49l.06-.43c.06-.5.22-1.88.15-2.29-.08-.44-1.4-6.52-1.83-8.52l-6.09,8.76-3.59-.02-9.33-3.66.21-.52,9.28,3.64h3.14l6.66-9.57.14.63c.08.35,1.88,8.64,1.97,9.18.07.41-.02,1.43-.09,2.02,1.58-.48,7.24-2.22,8.81-2.68,1.6-.47,2.33-1.45,3.1-2.49l.2-.27.45.34-.2.26c-.79,1.07-1.61,2.17-3.39,2.7-1.81.53-9.14,2.78-9.21,2.8l-.42.13Z" style="fill: #9b8579;"/>
    <path d="M116.71,75.35c-1.41-.98-1.8-1.37-1.9-1.57-.27-.13-1.31-.36-2.19-.51l-.11-.04c-.28-.19-1.71-1.16-1.92-1.79-.07-.2-.08-.43-.09-.7-.02-.59-.04-1.26-.72-1.91-1-.95-3.16-1.23-3.18-1.24l-.07-.02-4.18-1.7c-1.28-1.11-4.26-3.73-4.45-4.06-.25-.44-.16-4.34.21-5.41.31-.91.63-1.18.85-1.25,2.06-1.66,5.37-4.37,5.6-4.69.17-.31,1.01-.8,2.73-1.76.41-.23.81-.45,1.15-.65l.98-.57-4.99,8.02c-.02.27-.07,1.35.11,2.34.21,1.15,1.04,4.55,1.06,4.65h0s.17.3.52.34c.42.05.71.44.97.79.1.13.25.33.31.37h.01c.36,0,3.49,1,5.34,1.61l.08.02,4.26,5.02-.43.37-4.15-4.9c-1.85-.6-4.81-1.54-5.13-1.56-.29-.01-.5-.26-.74-.59-.17-.23-.41-.55-.58-.57-.69-.08-.98-.69-.99-.72-.05-.19-.87-3.56-1.09-4.74-.22-1.21-.12-2.5-.11-2.55l.04-.13,3.85-6.18c-.06.04-.13.07-.2.11-.94.52-2.36,1.31-2.52,1.55-.22.39-4.12,3.55-5.78,4.89l-.08.06h-.09s-.19.15-.45.89c-.34,1-.39,4.57-.25,4.96.18.25,2.71,2.49,4.29,3.87l4.02,1.62c.31.04,2.4.37,3.46,1.38.85.8.88,1.67.9,2.3,0,.22.01.41.06.54.11.32,1.02,1.04,1.65,1.47,2.33.42,2.57.63,2.57.86.18.21.99.83,1.69,1.31l-.32.46Z" style="fill: #9b8579;"/>
    <path d="M115.96,75.9l-7.83-1.48-.07-.1-4.16-6.31v-.07c-.17-2.32-.46-4.89-.66-5.2-.29-.33-1.58-1.85-1.93-2.44-.23-.39-.2-.76-.14-1.44.04-.49.1-1.15.1-2.16,0-2.52,1.49-3.29,1.56-3.32,1.22-.92,3.68-2.78,3.93-3l.37.42c-.33.28-3.86,2.94-4.01,3.05-.09.05-1.29.69-1.29,2.84,0,1.03-.06,1.71-.1,2.2-.06.66-.07.88.06,1.1.29.49,1.46,1.9,1.88,2.36.36.4.64,3.55.78,5.45l4.01,6.09,7.6,1.43-.1.55Z" style="fill: #9b8579;"/>
    <path d="M116.81,72.07c-4.48-.96-11.83-2.41-12.48-2.27-.1.03-.27.05-.45-.06-.76-.44-1.4-3.02-1.59-3.86-1.85-.51-6.22-1.65-7.42-1.65-.05,0-.1,0-.14,0-.43.05-.76-.05-.98-.29-.44-.49-.29-1.42-.01-2.67.11-.49.26-1.07.41-1.67.31-1.19.66-2.54.66-3.23s.26-1.07.41-1.29c.03-.05.08-.11.08-.13-.2-.3-.25-.38,4.92-3.66,1.41-.9,2.87-1.82,3.08-2.02.57-.56,3.75-3.24,3.89-3.36l.36.43s-3.3,2.78-3.85,3.33c-.24.23-1.36.95-3.17,2.1-1.7,1.08-4.21,2.67-4.67,3.12.04.22-.09.4-.18.52-.14.19-.31.43-.31.96,0,.76-.34,2.09-.68,3.37-.15.59-.3,1.17-.41,1.65-.17.78-.4,1.86-.12,2.17.09.1.25.14.5.11,1.29-.16,7.25,1.51,7.93,1.7l.16.05.04.16c.41,1.88,1.06,3.6,1.38,3.67.84-.25,10.76,1.83,12.74,2.26l-.12.55Z" style="fill: #9b8579;"/>
    <path d="M116.78,64.53l-7.49-2.54c-.31.03-1.48.15-2.02-.07-.22-.08-.79-.31.71-4.4-.19-.21-.62-.69-1.24-1.38-.96-1.08.31-3.83.46-4.14l2.44-3,.44.36-2.41,2.94c-.46.98-1.05,2.86-.51,3.47.86.97,1.35,1.51,1.35,1.51l.11.13-.06.16c-.58,1.57-1.12,3.45-1.03,3.87.39.11,1.26.06,1.76,0h.06s.06.01.06.01l7.55,2.56-.18.53Z" style="fill: #9b8579;"/>
    <path d="M93.09,57.29l-.68-4.11c-.54-.51-3.09-2.95-3.3-3.94-.2-.93-1.51-2.92-1.52-2.94l-.05-.07v-5.69h.56v5.52c.25.38,1.35,2.13,1.56,3.06.14.66,2.04,2.63,3.21,3.72l.07.06.72,4.3-.56.09Z" style="fill: #9b8579;"/>
    <path d="M94.77,96.96l-.55-.12s.69-3.06.43-4.27c-.15-.69-.03-2.22.09-3.7.07-.89.16-1.99.11-2.32l-.04-.03c-.53-.51.37-9.07.67-10.76q.23-1.33.34-1.54c.08-.17.25-.51.83-2.49.7-2.4.48-2.75.46-2.78-.14.01-.26.02-.37-.08l-.09-.08v-.16c-.01-.3.51-.94,3.27-4.05l.45-.51c1.73-1.95,7.18-5.65,7.41-5.81,2.38-1.22,4.94-2.66,5.17-2.97l.52.19c-.03.14-.14.55-5.41,3.26-.03.02-5.59,3.81-7.27,5.7l-.45.51c-1.09,1.23-2.53,2.84-3,3.49.07.03.14.08.2.16.22.27.34.88-.36,3.29-.59,2.03-.77,2.39-.87,2.58-.07.14-.07.14-.29,1.39-.44,2.51-.97,9.31-.81,10.25l.03.02c.22.2.2.7.04,2.79-.1,1.31-.23,2.94-.1,3.54.29,1.33-.4,4.38-.43,4.51Z" style="fill: #9b8579;"/>
    <path d="M97.15,96.29l-.55-.11c.66-3.3,1.32-7.03,1.23-7.46-.14-.21-.13-1.04-.05-3.78.04-1.35.09-2.74.03-3.23-.11-.95-.08-1.25-.04-1.37.05-.23.39-1.63,1.48-4.33,1.22-3,3.97-7.48,5.96-10.4,1.31-1.92,1.79-2.09,2.11-1.98.11.04.19.11.24.21l7.36-4.25.28.49-8.15,4.71.04-.53s0-.03,0-.04c-.16.1-.57.46-1.42,1.71-1.97,2.9-4.7,7.34-5.9,10.3-1.16,2.84-1.46,4.25-1.46,4.26l-.02.06c0,.08-.02.35.07,1.1.06.53.02,1.88-.02,3.31-.04,1.38-.1,3.27,0,3.53.19.3-.2,2.94-1.18,7.8Z" style="fill: #9b8579;"/>
    <path d="M116.25,63.27s-.09.11-.14.18c-.04.07-.09.14-.16.2-.11.14-.25.32-.36.47-.63.81-1.35,1.73-1.91,2.5-.14.16-.25.32-.34.45-.47.61-.81,1.06-.86,1.17-.09.14-.72.59-1.62,1.19-.16.09-.32.2-.5.32-.16.11-.34.23-.52.32-.23.16-.45.29-.7.45-.65.43-1.37.86-2.07,1.26-.16.11-.32.2-.47.32-.2.11-.41.25-.61.36-.18.11-.36.23-.54.32-.23.14-.43.27-.63.38-.04.32-.18,1.13-.41,2.16-.04.2-.09.41-.16.63-.14.63-.32,1.33-.52,2.03-.07.18-.11.38-.18.56-.09.29-.2.56-.32.83-.05.18-.11.36-.2.52-.07.23-.18.45-.27.65-.27.61-.59,1.35-.92,2.18-.07.2-.14.41-.23.61v.02c-.23.59-.45,1.19-.65,1.8-.11.29-.23.61-.32.9-.07.23-.14.43-.23.63-.05.18-.11.36-.18.54-.38,1.19-.72,2.25-.92,2.88-.11.38-.18.63-.2.7v.02c0,.29.68,2,1.37,3.6.02.09.07.18.11.27l-.5.25c-.05-.09-.11-.18-.18-.27-.5-.81-1.33-1.85-1.89-1.91-.09,0-.16-.02-.23-.04-.2-.05-.38-.14-.54-.25-.45-.32-.81-.79-1.08-1.15-.14-.16-.25-.32-.32-.36-.07-.04-.32-.27-.7-.61-.16-.14-.32-.29-.52-.45-1.69-1.49-4.57-4.05-4.73-4.21l-.07-.11c-.52-1.33-1.26-2.84-1.53-2.95-.54-.11-2.32-2.93-3.72-5.32l-2.61-2-.02-.09c-.07-.2-1.94-4.98-2.21-5.95-.18-.65-3.38-3.36-5.36-4.93l-.95-.45-.52-.27-1.82-.88-.52-.25-3.04-1.51-.11-.05-.34-.27-5.29-4.44-.45-.36c.09-.18.18-.36.27-.52l.16.14.27.25.29.23,5.07,4.23.34.27.11.07,3.15,1.53.54.27,1.78.88.54.25.81.41c.95.72,5.32,4.23,5.61,5.25.25.88,1.94,5.23,2.16,5.83l2.59,2.05c1.4,2.34,3.06,4.89,3.42,5.09.54.09,1.4,2.03,1.87,3.22,1.01.9,2.97,2.66,4.35,3.9.18.16.36.32.52.45.54.47.92.81.99.86.14.09.25.25.43.47.2.27.45.61.74.88.16.14.34.27.54.32.07.02.11.04.18.04.36.02.77.29,1.1.63-.38-.99-.7-1.91-.63-2.18.02-.07.07-.25.14-.5.07-.18.14-.43.23-.72.23-.68.52-1.58.86-2.59.07-.25.16-.5.25-.77.11-.32.23-.63.34-.95.09-.29.2-.61.32-.9.16-.47.34-.97.52-1.42.07-.2.14-.41.23-.59.27-.74.56-1.42.81-1.96.09-.23.2-.45.27-.68.09-.16.16-.34.2-.52.09-.23.18-.45.25-.68.07-.18.14-.38.18-.56.27-.83.47-1.64.65-2.39.04-.23.09-.45.14-.65.23-1.1.34-1.87.34-1.89l.02-.14.11-.07c.16-.09.29-.18.47-.29.18-.09.36-.2.56-.32.27-.16.54-.32.83-.5.16-.09.32-.18.47-.29.54-.32,1.08-.65,1.6-.97.25-.14.47-.29.7-.43.38-.25.74-.47,1.08-.7.16-.09.32-.2.47-.29.74-.47,1.28-.83,1.37-.97.07-.14.45-.68.97-1.35.09-.14.23-.29.34-.45.56-.77,1.22-1.62,1.71-2.25.14-.18.27-.34.38-.47.2-.25.34-.43.41-.52l.25.2.2.14Z" style="fill: #9b8579;"/>
    <path d="M102.91,93.28c-.05-1.26-.07-3.44.36-3.85.16-.15.26-1.02.34-1.78.08-.72.18-1.61.36-2.53.31-1.54,1.41-3.86,3.27-6.88.93-1.51,4.9-3.9,5.84-4.32.65-.29,2.52-2.93,3.54-4.53l.48.3c-.28.44-2.77,4.29-3.79,4.74-1.02.45-4.79,2.8-5.59,4.1-1.83,2.97-2.9,5.22-3.2,6.7-.18.9-.27,1.74-.36,2.48-.13,1.14-.2,1.83-.51,2.13-.18.24-.25,1.96-.19,3.43l-.56.02Z" style="fill: #9b8579;"/>
    <path d="M74.86,93.31c-.4-3.26-.81-7.24-.48-7.67.22-.29.48-2.58.48-4.85,0-1.54-.42-4.08-.56-4.88-.92.06-4.09.28-4.8.46-.37.1-.7.04-1.07-.03-.58-.1-1.38-.25-2.95.14-2.62.65-3.53.02-3.63-.05l.34-.45s.8.53,3.16-.05c1.68-.42,2.55-.26,3.18-.15.33.06.57.1.83.04.88-.22,4.98-.48,5.15-.49l.25-.02.05.25c.03.14.62,3.34.62,5.22,0,1.37-.15,4.59-.59,5.18-.13.38.19,4,.59,7.26l-.56.07Z" style="fill: #9b8579;"/>
    <path d="M75.06,46.04c0-.38,0-.77-.02-1.17,0-.25-.02-.5-.02-.74v-.02c-.04-.43-.07-.86-.09-1.24,0-.2-.02-.41-.02-.59-.02-.07-.02-.11-.02-.16l-.56.05c0,.14.02.25.02.38.02.2.02.41.02.61.02.14.05.27.02.41v.02c.02.25.04.52.04.77.02.5.05.99.05,1.46.02.2.02.41.02.61.02.52,0,.99-.02,1.37,0,.29-.02.52-.07.68v.02c0,.07,0,.14-.02.18l-.25.34.04.05c-.11.18-.32.61-.79,1.42-.09.16-.2.34-.32.54-.18.32-.38.65-.61,1.06-.09.16-.18.32-.29.47-.29.5-.63,1.06-1.01,1.69-.09.16-.18.29-.29.47-.09.16-.2.36-.32.54-.09.14-.18.29-.27.43-.09.16-.18.34-.27.5-.52.86-.99,1.6-1.42,2.27-.11.16-.2.32-.29.47-.32.47-.59.9-.86,1.28-.11.16-.2.34-.32.47-.43.65-.81,1.17-1.15,1.62-.14.16-.25.32-.36.47-.56.72-.97,1.15-1.26,1.42-.2.18-.36.29-.47.38l-.29.23c-.29.23-.54.43-.79.61h-.02c-.18.18-.36.32-.52.41-1.26.97-1.71,1.17-1.87,1.22l-.45-.14c-.36,0-.7.11-.77.14l.09.25.11.29c.14-.04.43-.11.61-.07h.02s.09,0,.11.02c.07.04.14.07.23.07.16,0,.41-.07.81-.32.38-.23.95-.61,1.73-1.22.16-.11.34-.25.52-.41h.02c.16-.14.34-.27.52-.41l.29-.23s.11-.09.18-.16c.11-.09.27-.23.45-.38.32-.32.72-.77,1.31-1.53.11-.14.23-.29.36-.47.29-.41.65-.9,1.04-1.49.11-.14.2-.29.32-.45.27-.41.54-.83.86-1.31.09-.14.18-.29.29-.45.43-.7.92-1.46,1.44-2.32.09-.16.2-.32.29-.47.09-.16.18-.29.27-.45.14-.25.29-.47.41-.7.11-.16.2-.32.29-.47.34-.54.63-1.04.88-1.49.11-.18.2-.34.29-.5.34-.54.59-.99.81-1.37.11-.2.23-.38.32-.54.38-.68.59-1.08.68-1.33.05-.02.07-.07.09-.09.07-.07.11-.2.16-.38.02-.16.04-.36.04-.59.07-.41.07-.9.07-1.44,0-.2,0-.38-.02-.61Z" style="fill: #9b8579;"/>
    <path d="M82.2,40.39c-.02.38-.16,1.17-.41,2.66-.05.23-.07.45-.14.7-.14.79-.29,1.76-.52,2.91-.02.18-.07.36-.09.56-.07.34-.14.7-.2,1.08-.02.18-.07.38-.11.59,0,.05,0,.11-.02.18-.02.16-.07.32-.09.47-.02.18-.07.36-.09.54-.14.7-.27,1.4-.38,2.07-.02.2-.07.41-.09.59-.04.27-.09.5-.14.74-.04.2-.07.41-.11.59-.23,1.28-.41,2.3-.47,2.79-.02.14-.02.23-.02.27s0,.11-.09.29c-.09.2-.34.59-.9,1.28-.11.14-.25.27-.38.41-.61.72-1.49,1.71-2.79,3.09-.14.14-.27.27-.41.43-.27.27-.54.54-.83.86-.14.14-.29.27-.43.43-.41.41-.83.86-1.31,1.33l-.43.43c-.36.36-.74.74-1.15,1.15-.27.27-.56.54-.88.81-.14.14-.29.27-.45.38-.16.16-.32.29-.5.43-.16.14-.32.27-.5.38-.43.36-.86.7-1.31,1.01-.16.14-.32.25-.47.36-.16.14-.32.25-.47.36-.16.11-.29.23-.45.34-.2.14-.38.27-.56.41-.18.11-.34.23-.5.36-.18.11-.36.25-.52.36h-.02c-.2.16-.38.27-.56.41h-.02c-.11.09-.23.18-.34.25-.18.11-.32.23-.47.34-.02.02-.05.02-.07.05-.43.29-.83.56-1.17.83h-.02c-.32.23-.56.41-.79.56-.27.2-.47.36-.56.47-.07.07-.14.11-.18.16-.02.02-.02.05-.04.02-.09.09-.16.16-.23.2-.09.07-.16.11-.23.14-.02-.09-.05-.18-.07-.27l.05.02s-.02-.11-.07-.18h-.02v-.02s-.07-.05-.11-.05c.02-.02.04-.05.09-.09.09-.05.23-.16.41-.34.02-.02.05-.05.07-.07h.02c.16-.14.41-.34.72-.56.43-.32.97-.7,1.62-1.17.07-.05.14-.09.2-.14.11-.09.25-.16.36-.25.04-.02.07-.05.11-.09.2-.14.41-.27.61-.43.23-.14.45-.29.68-.45.18-.14.36-.27.54-.38.23-.18.45-.34.7-.52.16-.11.32-.23.5-.34.11-.09.23-.18.34-.25.16-.14.32-.25.47-.36.43-.34.86-.65,1.26-.97.16-.14.32-.27.47-.41.2-.14.38-.29.56-.45.16-.14.32-.27.45-.38.36-.32.68-.61.95-.88.36-.36.7-.7,1.04-1.04l.41-.41c.47-.47.92-.92,1.33-1.35l.41-.41c.27-.27.52-.54.74-.79.16-.16.32-.29.43-.45,1.35-1.4,2.32-2.48,3.02-3.24.11-.16.25-.32.36-.43.52-.65.79-1.04.81-1.17l.02-.02c0-.07.02-.27.07-.56.07-.52.23-1.4.43-2.59.02-.18.07-.36.09-.56.07-.32.11-.63.18-.99.02-.18.07-.38.11-.59.09-.56.2-1.19.34-1.87.02-.18.07-.36.09-.56.02-.14.07-.29.09-.45.02-.09.02-.18.04-.27.05-.18.07-.38.11-.59.04-.29.11-.59.16-.88.02-.18.07-.38.11-.56.16-.88.32-1.76.45-2.57.04-.25.09-.47.11-.7.25-1.31.43-2.36.5-2.88.02-.18.05-.29.05-.34l.54-.09s.02.14-.02.32Z" style="fill: #9b8579;"/>
    <path d="M79.61,40.05s-.05.16-.11.43c-.04.16-.09.36-.16.61-.16.56-.34,1.33-.54,2.09-.04.18-.11.38-.16.56-.27,1.01-.54,2.03-.74,2.68-.02.04-.02.09-.05.16-.05.14-.09.29-.14.5,0,.02,0,.05-.02.09-.02.14-.07.29-.11.47-.09.32-.16.68-.27,1.08-.02.16-.07.34-.11.54-.09.38-.2.79-.29,1.22-.05.18-.09.38-.14.56-.11.47-.2.92-.32,1.42-.05.18-.09.38-.14.59-.18.79-.36,1.58-.52,2.34-.07.18-.09.34-.14.52-.14.56-.25,1.08-.34,1.55-.05.18-.09.36-.14.52-.18.88-.32,1.46-.32,1.49l-.02.09-.07.07s-1.1.86-2.16,1.8c-.16.11-.29.25-.45.36-.2.2-.41.38-.59.56-.16.14-.32.27-.45.41-.18.2-.34.38-.45.52-.2.27-.5.5-.9.72-.18.09-.41.2-.63.32-.27.14-.59.27-.92.41-.54.25-1.13.5-1.71.81h-.02c-.18.11-.36.2-.54.29-.32.18-.63.36-.92.56-.18.11-.36.25-.54.38-.32.23-.61.5-.9.77-.14.14-.27.25-.41.38-.16.14-.34.29-.5.43-.32.27-.63.52-.92.77-.2.16-.41.29-.59.43-.2.16-.38.29-.56.43-.29.2-.59.41-.83.56-.23.16-.45.29-.63.41-.11.04-.2.11-.27.16-.02,0-.05.02-.05.02-.09.05-.16.09-.23.14-.05-.2-.05-.41-.05-.61v-.02c.07-.05.14-.09.23-.11.09-.09.2-.14.32-.2.16-.11.34-.23.52-.36.27-.16.56-.36.86-.56.2-.16.41-.29.61-.45.32-.25.65-.5.97-.79.18-.14.34-.27.5-.43.23-.18.43-.38.63-.59.23-.23.47-.43.72-.61.16-.16.34-.27.52-.41.32-.23.65-.43.99-.63.18-.11.38-.2.56-.32.7-.36,1.4-.68,2.03-.95.18-.09.36-.16.54-.25.23-.11.45-.2.63-.29.5-.25.88-.5,1.06-.74.09-.14.23-.27.38-.43.14-.14.27-.29.43-.43.23-.2.45-.43.68-.61.14-.16.27-.27.43-.38.95-.86,1.91-1.62,2.21-1.85.05-.2.16-.7.29-1.4.05-.16.09-.34.14-.54.09-.45.2-.97.34-1.51.02-.18.07-.36.11-.54.16-.7.34-1.44.5-2.18.05-.2.09-.41.11-.59h.02c.11-.5.23-.97.34-1.44.02-.18.07-.38.11-.56.11-.47.23-.92.32-1.35.04-.2.09-.38.14-.56.11-.43.2-.81.27-1.15.07-.2.11-.38.14-.54.02-.04.02-.09.05-.11.04-.2.09-.38.14-.5,0-.02.02-.07.02-.09.2-.7.5-1.73.77-2.77.05-.18.09-.38.14-.56.16-.56.29-1.08.41-1.53.07-.23.11-.45.16-.63.14-.45.2-.74.2-.77l.56.14Z" style="fill: #9b8579;"/>
    <path d="M66.58,54.03l-1.81-3.3.49-.27,1.52,2.77c.29-.19.54-.35.74-.49l3.97-6.87-.49-1.65.54-.16.56,1.88-3.37,5.82c.13,0,.23.05.29.17.13.26.21.39-2.2,1.93l-.25.16Z" style="fill: #9b8579;"/>
    <rect x="61.72" y="55.45" width=".87" height=".56" transform="translate(-8.11 10.66) rotate(-9.21)" style="fill: #9b8579;"/>
  </g>
  <path d="M103.85,25.87v10.19h16.68v16.66h10.19v-26.84h-26.87ZM45.17,25.87v26.84h10.19v-16.66h16.68v-10.19h-26.87Z" style="fill: #231f20;"/>
  <path d="M89.38,126.2v-25.77h-3.21v25.77h-7.67l1.81,5.53h15.25l1.81-5.53h-8ZM85.92,149.04l.51,1.55h.53l.92-1.55h-1.96Z" style="fill: #231f20;"/>
  <path d="M120.53,64.24c-.08-.51-.15-1.02-.25-1.53-.1-.61-.23-1.22-.38-1.81-.08-.41-.18-.79-.31-1.2-.13-.48-.28-.99-.46-1.48-.15-.48-.33-.97-.51-1.43-.05-.13-.1-.25-.15-.41-.25-.61-.51-1.2-.79-1.81-.23-.48-.48-.97-.74-1.45-.08-.15-.15-.31-.23-.43-.84-1.5-1.78-2.95-2.85-4.3-.38-.51-.79-.99-1.22-1.48-.43-.51-.89-.99-1.38-1.48-1.63-1.66-3.46-3.13-5.42-4.41-.61-.41-1.25-.79-1.88-1.15-.03-.03-.08-.05-.1-.05-.43-.25-.87-.48-1.3-.69-.89-.46-1.78-.84-2.72-1.2-.46-.18-.92-.36-1.4-.51-.61-.23-1.25-.41-1.88-.59-.1-.03-.2-.05-.31-.08-.66-.15-1.35-.31-2.01-.43-.56-.13-1.12-.23-1.68-.31-1.5-.23-3.06-.33-4.61-.33s-3.08.1-4.58.33c-4.05.56-7.87,1.88-11.31,3.77-5.4,3.01-9.88,7.49-12.91,12.89-1.88,3.44-3.21,7.28-3.77,11.33-.23,1.5-.33,3.03-.33,4.58s.1,3.08.33,4.58c.56,4.07,1.88,7.89,3.79,11.33.74,1.35,1.58,2.62,2.5,3.85,1.91,2.55,4.18,4.79,6.75,6.7l1.99,6.11,3.31,10.19,1.96,6.01,2.85,8.81h7.67v-25.77h3.21v25.77h8l3.82-11.77.99-3.06,3.31-10.19,1.99-6.14c2.57-1.88,4.81-4.13,6.72-6.67.92-1.22,1.76-2.5,2.47-3.85,1.96-3.49,3.29-7.39,3.85-11.54.2-1.43.31-2.9.31-4.38s-.1-2.95-.31-4.38ZM115.67,70.48c0,.33-.03.66-.08.97-.05.48-.1.94-.18,1.4-.64,4.3-2.29,8.28-4.69,11.69-.05.05-.08.1-.13.15-.38.56-.79,1.1-1.22,1.6-1.12,1.38-2.39,2.65-3.77,3.77-.51.43-1.04.84-1.6,1.22-.05.05-.1.08-.15.13-3.41,2.39-7.39,4.05-11.69,4.69-.46.08-.92.13-1.4.18-.31.05-.64.08-.97.08-.61.05-1.22.08-1.86.08s-1.25-.03-1.86-.08c-1.76-.1-3.44-.38-5.09-.81-.38-.1-.79-.2-1.17-.33-.08-.03-.15-.03-.23-.05-.41-.15-.81-.28-1.2-.43-.25-.08-.48-.18-.74-.28-.69-.28-1.38-.59-2.04-.92-.64-.31-1.25-.64-1.83-.99-.28-.18-.59-.36-.87-.53-.31-.18-.59-.38-.87-.59-.31-.2-.61-.43-.92-.66-.46-.33-.89-.69-1.32-1.1-.28-.23-.53-.43-.76-.66-.25-.23-.48-.46-.74-.71-.31-.28-.59-.59-.87-.89-.33-.36-.64-.71-.94-1.1-.43-.51-.84-1.04-1.22-1.6-.05-.05-.08-.1-.13-.15-2.39-3.41-4.05-7.39-4.69-11.69-.08-.46-.13-.92-.18-1.4-.05-.31-.08-.64-.08-.97-.05-.61-.08-1.22-.08-1.86s.03-1.25.08-1.86c0-.33.03-.66.08-.97.03-.48.1-.94.18-1.4.05-.33.1-.69.18-1.02.05-.31.1-.59.18-.87.13-.64.31-1.25.48-1.86.1-.38.23-.76.38-1.15.84-2.44,2.01-4.74,3.46-6.8.05-.05.08-.1.13-.15.38-.56.79-1.1,1.22-1.6.31-.38.61-.74.94-1.1.28-.31.56-.61.87-.89.25-.25.48-.48.74-.71.23-.23.48-.43.76-.66.43-.41.87-.76,1.32-1.1.31-.23.61-.46.92-.66.28-.2.56-.41.87-.59.28-.18.59-.36.87-.53.59-.36,1.2-.69,1.83-.99.31-.15.59-.31.89-.43.28-.13.59-.25.89-.38.36-.15.69-.28,1.04-.41.41-.15.81-.31,1.25-.43.41-.13.84-.25,1.27-.36.23-.08.46-.13.69-.15.53-.13,1.07-.25,1.63-.33.92-.18,1.86-.28,2.8-.33.61-.05,1.22-.08,1.86-.08s1.25.03,1.86.08c.33,0,.66.03.97.08.46.03.94.1,1.4.18.31.03.61.08.92.15.18.03.33.05.51.1.79.15,1.55.36,2.32.59.38.1.76.23,1.15.38,2.44.84,4.74,2.01,6.8,3.46.05.05.1.08.15.13.56.38,1.1.79,1.6,1.22,1.38,1.12,2.65,2.39,3.77,3.77.43.51.84,1.04,1.22,1.6.05.05.08.1.13.15,1.45,2.06,2.62,4.35,3.46,6.8.15.38.28.76.38,1.15.18.61.36,1.22.48,1.86.08.28.13.56.18.87.08.33.13.69.18,1.02.08.46.15.92.18,1.4.05.31.08.64.08.97.05.61.08,1.22.08,1.86s-.03,1.25-.08,1.86Z" style="fill: #0d9949;"/>
  <polygon points="130.72 84.54 130.72 111.38 102.19 111.38 105.5 101.19 120.53 101.19 120.53 84.54 130.72 84.54" style="fill: #231f20;"/>
  <polygon points="73.7 111.38 45.17 111.38 45.17 84.54 55.36 84.54 55.36 101.19 70.39 101.19 73.7 111.38" style="fill: #231f20;"/>
  <rect x="19.47" y="67.1" width="34.15" height="3.03" style="fill: #0d9949;"/>
  <rect x="86.3" width="3.03" height="34.13" style="fill: #0d9949;"/>
  <rect x="121.9" y="67.49" width="34.13" height="3.03" style="fill: #0d9949;"/>
  <rect x="86.18" y="100.43" width="3.21" height="31.3" style="fill: #fff;"/>
  <rect x="70.79" y="126.2" width="34.79" height="5.53" style="fill: #231f20;"/>
  <polygon points="105.58 133.85 105.58 139.53 103.85 140.19 102.19 140.83 99.08 140.83 98.75 143.61 78.76 143.61 78.43 141.82 76.98 141.49 75.35 141.01 73.69 140.52 72.04 139.71 70.79 139.71 70.79 133.85 105.58 133.85" style="fill: #0d9949;"/>
  <polygon points="76.47 145.06 12.6 321.29 3.99 318.66 68.35 141.82 76.47 145.06" style="fill: #0d9949;"/>
  <polygon points="170.72 317.29 170.72 318.76 164.12 321.08 99.64 144.65 106.72 141.82 170.72 317.29" style="fill: #0d9949;"/>
  <path d="M83.8,334.45s.31.64,0,2.42c-.33,1.81,1.78,12.05,1.78,12.05v8.76l.81.99s3.9,2.6,4.53,0c.66-2.6,0-9.75,0-9.75l1.32-.66v-6.67l.97-.31v-66.82h5.04s2.27.18,2.27-.97,0-.15,1.48-1.78c1.45-1.63,2.27-4.41,1.6-7.16-.64-2.78-3.72-.33-3.97-2.93s0-43.24,0-43.24c0,0,.74-2.75,3.34-3.57,2.6-.81,1.15-7.82-.66-8.45-1.78-.66-2.75-1.3-2.67-3.59.08-2.27,0-54.45,0-54.45l30.81,85.34,31.68,87.43s3.11,5.88,3.9,6.7c.81.81,7.82,12.68,7.97,14.95l2.93-.33" style="fill: none; stroke: #0d9949; stroke-miterlimit: 10; stroke-width: .5px;"/>
  <path d="M83.8,274.45l-4.81-.48-2.19-.15-.33-1.63v-9.19l1.71-2.11v-42.58l-1.71-2.27.33-8.48.08-1.78,1.3-.48v-56.97l-62.16,171.42s-1.78,4.79-3.26,6.9c-1.45,2.11-5.53,8.45-6.83,12.05-1.3,3.57-5.04,6.32-5.68,1.6" style="fill: none; stroke: #0d9949; stroke-miterlimit: 10; stroke-width: .5px;"/>
  <path d="M176.94,336.39s-1.79-11.13-2.6-15.32c-.81-4.19-5.2-15.73-6.66-18.82-1.46-3.09-56.08-154.91-56.08-154.91,0,0-1.46-5.2-3.74-6.5v-15.61h-5.66" style="fill: none; stroke: #0d9949; stroke-miterlimit: 10; stroke-width: .5px;"/>
  <path d="M68.35,141.82l1.3-1.46v-12.68s-.98-2.11,1.14-2.44,5.69,0,5.69,0" style="fill: none; stroke: #0d9949; stroke-miterlimit: 10; stroke-width: .5px;"/>
  <path d="M90.93,272.67v61.6s-1.3,1.78-2.34,1.48c-1.07-.33-1.71-1.63-2.85-1.3-1.12.31-1.94,0-1.94,0v-60s.97-1.3,1.3-1.78c.31-.48,5.83,0,5.83,0Z" style="fill: #0d9949;"/>
  <path d="M99.64,269.5s-.33-1.54-.73-1.63-.49-1.95-.49-1.95c0,0,.57-.89.61-1.38s1.02-1.14,1.75-.57.89,2.03.89,3.01.57,1.95-.65,2.52-1.23.56-1.38,0Z" style="fill: #0d9949;"/>
  <path d="M99.6,213.06s-.22-1.56-.62-1.67-.35-1.98-.35-1.98c0,0,.63-.85.7-1.34s1.09-1.07,1.78-.45.75,2.09.69,3.06.43,1.98-.82,2.47-1.27.48-1.38-.09Z" style="fill: #0d9949;"/>
  <rect x="82.75" y="158.41" width="3.17" height="1.22" style="fill: #231f20;"/>
  <rect x="82.75" y="161.67" width="3.17" height="1.22" style="fill: #231f20;"/>
  <rect x="82.75" y="168.21" width="3.17" height="1.22" style="fill: #231f20;"/>
  <rect x="82.75" y="174.25" width="3.17" height="1.22" style="fill: #231f20;"/>
  <rect x="82.75" y="177.44" width="3.17" height="1.22" style="fill: #231f20;"/>
  <rect x="82.75" y="183.84" width="3.17" height="1.22" style="fill: #231f20;"/>
  <rect x="82.75" y="186.94" width="3.17" height="1.22" style="fill: #231f20;"/>
  <rect x="82.75" y="190.04" width="3.17" height="1.22" style="fill: #231f20;"/>
  <rect x="82.75" y="193.27" width="3.17" height="1.22" style="fill: #231f20;"/>
  <rect x="82.6" y="199.6" width="3.17" height="1.22" style="fill: #231f20;"/>
  <rect x="82.75" y="205.75" width="3.17" height="1.22" style="fill: #231f20;"/>
  <rect x="82.75" y="209.21" width="3.17" height="1.22" style="fill: #231f20;"/>
  <rect x="82.75" y="215.06" width="3.17" height="1.22" style="fill: #231f20;"/>
  <rect x="82.6" y="221.83" width="3.17" height="1.22" style="fill: #231f20;"/>
  <rect x="82.78" y="225.13" width="3.17" height="1.22" style="fill: #231f20;"/>
  <rect x="82.78" y="230.94" width="3.17" height="1.22" style="fill: #231f20;"/>
  <rect x="82.75" y="237.64" width="3.17" height="1.22" style="fill: #231f20;"/>
  <rect x="82.75" y="240.74" width="3.17" height="1.22" style="fill: #231f20;"/>
  <rect x="82.75" y="246.82" width="3.17" height="1.22" style="fill: #231f20;"/>
  <rect x="82.78" y="253.2" width="3.17" height="1.22" style="fill: #231f20;"/>
  <rect x="82.78" y="256.18" width="2.9" height="1.22" style="fill: #231f20;"/>
  <polygon points="82.78 250.23 82.78 251.01 86.19 251.01 85.69 250.23 82.78 250.23" style="fill: #231f20;"/>
  <polygon points="82.63 234.51 82.63 235.29 86.04 235.29 85.54 234.51 82.63 234.51" style="fill: #231f20;"/>
  <polygon points="82.67 218.66 82.67 219.44 86.07 219.44 85.57 218.66 82.67 218.66" style="fill: #231f20;"/>
  <polygon points="82.75 202.69 82.75 203.47 86.16 203.47 85.66 202.69 82.75 202.69" style="fill: #231f20;"/>
  <polygon points="82.85 171.24 82.85 172.23 85.74 172.23 85.32 171.24 82.85 171.24" style="fill: #231f20;"/>
  <polygon points="82.85 155.6 82.85 156.59 85.74 156.59 85.32 155.6 82.85 155.6" style="fill: #231f20;"/>
  <polygon points="82.63 243.6 82.63 245.17 88.91 245.17 90.26 243.6 82.63 243.6" style="fill: #231f20;"/>
  <polygon points="82.63 227.63 82.63 229.2 86.96 229.2 87.88 227.63 82.63 227.63" style="fill: #231f20;"/>
  <polygon points="82.63 211.96 82.63 213.53 86.96 213.53 87.88 211.96 82.63 211.96" style="fill: #231f20;"/>
  <polygon points="82.63 196.26 82.63 197.82 86.96 197.82 87.88 196.26 82.63 196.26" style="fill: #231f20;"/>
  <polygon points="82.63 180.47 82.63 182.03 86.96 182.03 87.88 180.47 82.63 180.47" style="fill: #231f20;"/>
  <polygon points="82.63 164.77 82.63 166.33 86.96 166.33 87.88 164.77 82.63 164.77" style="fill: #231f20;"/>
  <polygon points="87.88 149.06 86.96 150.61 82.63 150.61 82.63 149.06 87.88 149.06" style="fill: #231f20;"/>
  <rect x="82.75" y="152.29" width="3.17" height="1.22" style="fill: #231f20;"/>
  <line x1="97.2" y1="145.03" x2="97.2" y2="204.52" style="fill: none; stroke: #231f20; stroke-miterlimit: 10; stroke-width: .25px;"/>
  <line x1="97.2" y1="206.97" x2="97.2" y2="214.03" style="fill: none; stroke: #231f20; stroke-miterlimit: 10; stroke-width: .25px;"/>
  <line x1="97.2" y1="215.67" x2="97.2" y2="261.09" style="fill: none; stroke: #231f20; stroke-miterlimit: 10; stroke-width: .25px;"/>
  <path d="M97.2,248.7s-6.42,11.22-19.02,6.1" style="fill: none; stroke: #231f20; stroke-dasharray: 12 12 4 4 8 8; stroke-miterlimit: 10; stroke-width: .25px;"/>
  <path d="M76.48,207.73s13.09-6.99,20.73,5.77" style="fill: none; stroke: #231f20; stroke-dasharray: 12 12 4 4 8 8; stroke-miterlimit: 10; stroke-width: .25px;"/>
  <path d="M97.2,193.27s-5.85,10.87-19.02,6.33" style="fill: none; stroke: #231f20; stroke-dasharray: 12 12 4 4 8 8; stroke-miterlimit: 10; stroke-width: .25px;"/>
  <path d="M78.18,151.5s3.72-1.38,8.33-.64c.84.13,1.73.36,2.62.66,2.72.92,5.58,2.72,8.07,6.06" style="fill: none; stroke: #231f20; stroke-dasharray: 12 12 4 4 8 8; stroke-miterlimit: 10; stroke-width: .25px;"/>
  <text transform="translate(86.84 248.96)" style="fill: #be1e2d; font-family: MyriadPro-Regular, &apos;Myriad Pro&apos;; font-size: 17.83px;"><tspan x="0" y="0">7</tspan></text>
  <text transform="translate(87.88 232.16)" style="fill: #231f20; font-family: MyriadPro-Regular, &apos;Myriad Pro&apos;; font-size: 11.46px;"><tspan x="0" y="0">1</tspan></text>
  <text transform="translate(88.59 216.28)" style="fill: #231f20; font-family: MyriadPro-Regular, &apos;Myriad Pro&apos;; font-size: 11.46px;"><tspan x="0" y="0">2</tspan></text>
  <text transform="translate(88.59 200.71)" style="fill: #231f20; font-family: MyriadPro-Regular, &apos;Myriad Pro&apos;; font-size: 11.46px;"><tspan x="0" y="0">3</tspan></text>
  <text transform="translate(88.66 153.51)" style="fill: #231f20; font-family: MyriadPro-Regular, &apos;Myriad Pro&apos;; font-size: 11.46px;"><tspan x="0" y="0">6</tspan></text>
  <text transform="translate(87.77 168.82)" style="fill: #231f20; font-family: MyriadPro-Regular, &apos;Myriad Pro&apos;; font-size: 11.46px;"><tspan x="0" y="0">5</tspan></text>
  <text transform="translate(88.18 185.06)" style="fill: #231f20; font-family: MyriadPro-Regular, &apos;Myriad Pro&apos;; font-size: 11.46px;"><tspan x="0" y="0">4</tspan></text>
  <path d="M3.98,320.62c-.08.57-3.41,17.64-3.41,17.64,0,0,.16,3.25,1.71,1.63s1.71-5.85,3.49-8.29c1.79-2.44,5.61-8.53,5.61-8.53l-7.4-2.44Z" style="fill: #231f20;"/>
  <path d="M85.09,337.12l.45,4.92.61,2.56.65,3.62.57,1.26v7.84s1.3.12,1.22,0,.33-11.01.33-11.01c0,0,.49-.49.69-.73s-.57-2.32,0-2.72.77-2.4.77-3.21.57-2.52.57-2.52h-5.85Z" style="fill: #231f20;"/>
  <path d="M165.17,322.75s7.35,11.37,9.36,17.25c0,0,1.16-.09.98-.67s-2.41-5.55-2.74-7.22-1.19-11.8-1.19-11.8l-6.4,2.44Z" style="fill: #231f20;"/>
  <polygon points="78.55 263.28 97.2 263.28 97.2 270.8 78.55 271.13 78.55 263.28" style="fill: #231f20;"/>
</svg>